<?xml version="1.0" encoding="UTF-8" standalone="no"?>
<!-- Created with Inkscape (http://www.inkscape.org/) -->

<svg
   xmlns:dc="http://purl.org/dc/elements/1.1/"
   xmlns:cc="http://creativecommons.org/ns#"
   xmlns:rdf="http://www.w3.org/1999/02/22-rdf-syntax-ns#"
   xmlns:svg="http://www.w3.org/2000/svg"
   xmlns="http://www.w3.org/2000/svg"
   xmlns:sodipodi="http://sodipodi.sourceforge.net/DTD/sodipodi-0.dtd"
   xmlns:inkscape="http://www.inkscape.org/namespaces/inkscape"
   width="210mm"
   height="297mm"
   viewBox="0 0 210 297"
   version="1.1"
   id="svg8"
   inkscape:version="0.92.5 (2060ec1f9f, 2020-04-08)"
   sodipodi:docname="control1.svg">
  <defs
     id="defs2" />
  <sodipodi:namedview
     id="base"
     pagecolor="#ffffff"
     bordercolor="#666666"
     borderopacity="1.0"
     inkscape:pageopacity="0.0"
     inkscape:pageshadow="2"
     inkscape:zoom="0.49497475"
     inkscape:cx="305.18326"
     inkscape:cy="528.4191"
     inkscape:document-units="mm"
     inkscape:current-layer="layer1"
     showgrid="false"
     inkscape:window-width="669"
     inkscape:window-height="842"
     inkscape:window-x="62"
     inkscape:window-y="21"
     inkscape:window-maximized="0" />
  <metadata
     id="metadata5">
    <rdf:RDF>
      <cc:Work
         rdf:about="">
        <dc:format>image/svg+xml</dc:format>
        <dc:type
           rdf:resource="http://purl.org/dc/dcmitype/StillImage" />
        <dc:title />
      </cc:Work>
    </rdf:RDF>
  </metadata>
  <g
     inkscape:label="Layer 1"
     inkscape:groupmode="layer"
     id="layer1">
    <g
       id="g152"
       transform="matrix(0.72477103,0,0,0.61901158,21.616351,13.00495)">
      <g
         word-spacing="normal"
         letter-spacing="normal"
         font-size-adjust="none"
         font-stretch="normal"
         font-weight="normal"
         font-variant="normal"
         font-style="normal"
         stroke-miterlimit="10.433"
         xml:space="preserve"
         transform="matrix(0.3,0,0,-0.3,-52.5,222.75)"
         id="g150"
         style="font-style:normal;font-variant:normal;font-weight:normal;font-stretch:normal;letter-spacing:normal;word-spacing:normal;text-anchor:start;fill:none;fill-opacity:1;fill-rule:evenodd;stroke:#000000;stroke-linecap:butt;stroke-linejoin:miter;stroke-miterlimit:10.43299961;stroke-dasharray:none;stroke-dashoffset:0;stroke-opacity:1"><path
           id="path130"
           d="m 468.43,381.66 h 0.12 0.12 0.14 l 0.13,-0.01 h 0.15 0.15 0.15 l 0.16,-0.01 0.16,-0.01 0.17,-0.01 0.34,-0.02 0.35,-0.03 0.36,-0.04 0.37,-0.06 0.37,-0.07 0.18,-0.04 0.19,-0.04 0.18,-0.05 0.18,-0.06 0.19,-0.05 0.18,-0.07 0.18,-0.06 0.17,-0.08 0.18,-0.07 0.17,-0.09 0.17,-0.09 0.16,-0.09 -0.2,2.05 v 0.04 c 0.79,0.36 1.9,1.1 2.79,2.14 v -4.17 c -1.2,1.35 -2.73,1.99 -2.79,1.99 l 0.2,-2.05 c 2.39,-1.53 2.59,-4.23 2.59,-4.53 0.05,-0.69 0.05,-1.35 0.9,-1.35 0.85,0 0.85,0.71 0.85,1.6 v 13.5 c 0,0.79 0,1.59 -0.85,1.59 -0.85,0 -0.9,-0.75 -0.9,-1.14 -0.29,-6.42 -5.37,-6.78 -7.96,-6.83 v 10.52 l -1.75,0.09 v -24.15 c 0,-1.8 0.36,-2.8 0.54,-3.24 h -5.28 c 0.41,0.89 0.41,2.14 0.41,2.74 v 25.15 c 0,0.6 0,1.85 -0.41,2.75 h 5.28 c -0.54,-1.15 -0.54,-2.79 -0.54,-3.25 l 1.75,-0.09 c 0,3.34 0.93,3.34 2.14,3.34 h 2.39 c 6.72,0 10.06,-3.43 10.36,-6.87 0.04,-0.41 0.11,-1.16 0.9,-1.16 0.85,0 0.85,0.8 0.85,1.64 v 6.49 c 0,1.54 -0.11,1.64 -1.64,1.64 l -0.11,-1.74 v -2.39 c -0.85,0.94 -1.8,1.74 -2.85,2.39 h 2.85 l 0.11,1.74 h -25.52 c -0.89,0 -1.69,0 -1.69,-0.89 0,-0.85 0.94,-0.85 1.35,-0.85 2.82,0 3.03,-0.4 3.03,-2.84 V 369.5 c 0,-2.34 -0.14,-2.83 -2.78,-2.83 -0.75,0 -1.6,0 -1.6,-0.86 0,-0.89 0.8,-0.89 1.69,-0.89 h 26.41 l 0.04,1.75 h -3.48 v 0.05 c 1.59,0.8 2.94,1.84 3.94,2.73 -0.05,-0.2 -0.41,-2.39 -0.46,-2.78 l -0.04,-1.75 c 0.95,0 1.43,0 1.59,0.7 0.05,0.05 1.44,8.36 1.44,8.61 0,0.55 -0.44,0.91 -0.85,0.91 -0.68,0 -0.89,-0.66 -0.89,-0.7 -0.29,-1.3 -0.79,-3.39 -4.43,-5.53 -2.6,-1.55 -5.13,-2.24 -7.88,-2.24 h -2.73 c -1.21,0 -2.14,0 -2.14,3.33 z"
           inkscape:connector-curvature="0"
           style="fill:#000000;stroke-width:0" /><path
           id="path132"
           d="m 544.46,447.2 0.07,0.25 0.07,0.24 0.05,0.11 0.04,0.12 0.05,0.11 0.05,0.12 0.06,0.11 0.06,0.1 0.06,0.11 0.08,0.1 0.07,0.1 0.09,0.09 0.08,0.09 0.1,0.09 0.1,0.09 0.11,0.08 0.12,0.07 0.13,0.08 0.14,0.06 0.14,0.07 0.15,0.06 0.17,0.05 0.17,0.05 0.18,0.05 0.2,0.03 0.21,0.04 0.21,0.03 0.12,0.01 0.11,0.01 0.12,0.01 0.12,0.01 h 0.13 l 0.13,0.01 c 0.17,0 0.7,0.03 0.7,0.76 0,0.2 -0.17,0.49 -0.53,0.49 -1.14,0 -2.44,-0.14 -3.62,-0.14 -0.83,0 -2.85,0.14 -3.69,0.14 -0.17,0 -0.71,0 -0.71,-0.77 0,-0.45 0.46,-0.48 0.79,-0.48 1.62,-0.04 2.21,-0.57 2.21,-1.44 0,-0.27 -0.03,-0.45 -0.14,-0.83 l -3.79,-15.19 -8.85,18.11 c -0.28,0.6 -0.34,0.6 -1.18,0.6 h -4.77 c -0.67,0 -1.12,0 -1.12,-0.77 0,-0.48 0.42,-0.48 1.15,-0.48 0.74,0 1.5,-0.04 2.22,-0.18 l -4.66,-18.64 c -0.31,-1.32 -0.9,-2.37 -3.62,-2.48 -0.25,0 -0.74,-0.03 -0.74,-0.74 0,-0.37 0.29,-0.51 0.52,-0.51 1.16,0 2.44,0.14 3.63,0.14 0.84,0 2.85,-0.14 3.7,-0.14 0.34,0 0.69,0.17 0.69,0.73 0,0.49 -0.43,0.52 -0.8,0.52 -2.2,0.08 -2.2,0.98 -2.2,1.47 0,0.14 0,0.31 0.14,0.87 l 4.47,17.83 10.17,-20.83 c 0.28,-0.56 0.42,-0.59 0.76,-0.59 0.57,0 0.57,0.11 0.74,0.73 z"
           inkscape:connector-curvature="0"
           style="fill:#000000;stroke-width:0" /><path
           id="path134"
           d="m 560.12,342.45 6.03,15.94 h -1.25 c -1.95,-5.18 -7.24,-8.57 -12.95,-10.07 -1.05,-0.25 -5.94,-1.54 -15.5,-1.54 H 506.4 l 25.36,29.75 c 0.36,0.39 0.45,0.54 0.45,0.79 0,0.1 0,0.25 -0.34,0.75 l -23.22,31.74 h 27.3 c 6.68,0 11.21,-0.7 11.65,-0.8 2.7,-0.4 7.03,-1.25 10.97,-3.73 1.25,-0.8 4.63,-3.05 6.33,-7.08 h 1.25 l -6.03,14 h -58.89 c -1.14,0 -1.21,-0.05 -1.35,-0.34 -0.04,-0.16 -0.04,-1.1 -0.04,-1.66 l 26.34,-36.06 -25.8,-30.25 c -0.5,-0.6 -0.5,-0.85 -0.5,-0.89 0,-0.55 0.44,-0.55 1.35,-0.55 z"
           inkscape:connector-curvature="0"
           style="fill:#000000;stroke-width:0" /><path
           id="path136"
           d="m 508.86,320.48 h 3.55 c 0.65,0 1.11,0 1.11,0.77 0,0.48 -0.46,0.48 -1.04,0.48 h -3.31 l 1.28,5.16 c 0.03,0.17 0.11,0.34 0.11,0.49 0,0.64 -0.48,1.12 -1.18,1.12 -0.88,0 -1.4,-0.59 -1.65,-1.5 -0.23,-0.88 0.22,0.8 -1.32,-5.27 h -3.55 c -0.66,0 -1.11,0 -1.11,-0.76 0,-0.49 0.41,-0.49 1.05,-0.49 h 3.29 l -2.04,-8.21 c -0.22,-0.88 -0.53,-2.13 -0.53,-2.58 0,-2.07 1.75,-3.31 3.73,-3.31 3.87,0 6.06,4.87 6.06,5.32 0,0.46 -0.45,0.46 -0.56,0.46 -0.41,0 -0.45,-0.08 -0.72,-0.66 -0.98,-2.2 -2.76,-4.16 -4.67,-4.16 -0.74,0 -1.22,0.46 -1.22,1.71 0,0.36 0.14,1.09 0.2,1.43 z"
           inkscape:connector-curvature="0"
           style="fill:#000000;stroke-width:0" /><path
           id="path138"
           d="m 542.05,318.42 h 0.05 0.05 0.05 0.05 l 0.11,0.01 h 0.05 l 0.06,0.01 h 0.05 l 0.06,0.01 0.05,0.01 0.06,0.01 0.05,0.01 0.05,0.02 0.06,0.01 0.05,0.02 0.05,0.02 0.04,0.03 0.05,0.03 0.04,0.03 0.04,0.03 0.04,0.04 0.03,0.04 0.02,0.02 0.02,0.02 0.01,0.02 0.02,0.03 0.01,0.02 0.01,0.03 0.01,0.03 0.01,0.03 0.01,0.03 0.01,0.03 0.01,0.03 0.01,0.03 v 0.04 l 0.01,0.03 v 0.04 l 0.01,0.04 v 0.04 0.04 c 0,0.84 -0.83,0.84 -1.28,0.84 h -23.06 c -0.46,0 -1.3,0 -1.3,-0.84 0,-0.88 0.8,-0.88 1.33,-0.88 z"
           inkscape:connector-curvature="0"
           style="fill:#000000;stroke-width:0" /><path
           id="path140"
           d="m 542.08,310.77 h 0.04 0.05 0.04 0.05 0.05 0.05 0.06 l 0.05,0.01 h 0.05 l 0.06,0.01 0.05,0.01 0.05,0.01 0.06,0.01 0.05,0.02 0.05,0.01 0.05,0.02 0.05,0.02 0.04,0.02 0.05,0.03 0.04,0.03 0.04,0.03 0.04,0.04 0.04,0.03 0.02,0.02 0.01,0.03 0.02,0.02 0.01,0.02 0.02,0.02 0.01,0.03 0.01,0.03 0.01,0.02 0.01,0.03 0.01,0.03 0.01,0.03 0.01,0.03 v 0.03 l 0.01,0.04 v 0.03 l 0.01,0.04 v 0.04 0.03 c 0,0.88 -0.8,0.88 -1.31,0.88 h -23 c -0.53,0 -1.33,0 -1.33,-0.88 0,-0.82 0.84,-0.82 1.3,-0.82 z"
           inkscape:connector-curvature="0"
           style="fill:#000000;stroke-width:0" /><path
           id="path142"
           d="m 563.86,317.83 v 0.71 l -0.02,0.68 -0.03,0.66 -0.04,0.64 -0.06,0.62 -0.08,0.59 -0.09,0.58 -0.1,0.56 -0.13,0.55 -0.15,0.52 -0.17,0.52 -0.19,0.5 -0.21,0.49 -0.24,0.48 -0.26,0.47 -0.14,0.23 -0.15,0.23 c -1.08,1.61 -3.23,3 -6.03,3 v -0.98 c 1.89,0 3.7,-1.15 4.33,-3.18 0.56,-1.87 0.59,-4.39 0.59,-7.42 0,-2.58 0,-5.16 -0.45,-7.34 -0.71,-3.17 -3.06,-3.94 -4.47,-3.94 v 0 c -1.59,0 -3.72,0.94 -4.42,3.8 -0.49,2.04 -0.49,4.9 -0.49,7.48 0,2.55 0,5.2 0.52,7.11 0.73,2.75 2.97,3.49 4.39,3.49 v 0.98 c -8.08,0 -8.08,-9.52 -8.08,-12.03 0,-2.5 0,-11.81 8.08,-11.81 8.09,0 8.09,9.31 8.09,11.81 z"
           inkscape:connector-curvature="0"
           style="fill:#000000;stroke-width:0" /><path
           id="path144"
           d="m 579.37,377.58 0.09,0.26 0.1,0.26 0.1,0.25 0.11,0.24 0.11,0.23 0.12,0.23 0.12,0.21 0.12,0.21 0.13,0.21 0.13,0.19 0.13,0.19 0.14,0.18 0.28,0.34 0.3,0.32 0.3,0.29 0.3,0.27 0.32,0.24 0.31,0.23 0.32,0.2 0.32,0.18 0.31,0.16 0.32,0.15 0.31,0.13 0.31,0.11 0.29,0.1 0.29,0.08 0.28,0.07 0.27,0.06 0.25,0.05 0.24,0.04 0.23,0.03 0.2,0.03 0.19,0.01 0.16,0.02 h 0.14 l 0.12,0.01 h 0.09 0.07 c 7.51,0 8.06,-8.72 8.06,-12.66 0,-3.04 -0.25,-3.89 -0.59,-4.89 -1.1,-3.62 -2.6,-9.4 -2.6,-10.7 0,-0.55 0.25,-0.91 0.66,-0.91 0.64,0 1.05,1.11 1.59,3 1.14,4.19 1.64,7.02 1.85,8.57 0.09,0.65 0.19,1.29 0.39,1.95 1.59,4.92 4.78,12.34 6.78,16.28 0.34,0.59 0.94,1.7 0.94,1.89 0,0.5 -0.49,0.5 -0.6,0.5 -0.14,0 -0.45,0 -0.59,-0.34 -2.59,-4.74 -4.58,-9.72 -6.58,-14.75 -0.05,1.54 -0.09,5.32 -2.05,10.17 -1.18,3.03 -3.18,5.47 -6.62,5.47 -6.22,0 -9.72,-7.56 -9.72,-9.11 0,-0.5 0.45,-0.5 0.95,-0.5 z"
           inkscape:connector-curvature="0"
           style="fill:#000000;stroke-width:0" /><path
           id="path146"
           d="m 631.73,381.86 0.48,0.11 0.48,0.12 0.48,0.14 0.48,0.15 0.48,0.16 0.48,0.18 0.48,0.19 0.48,0.2 0.47,0.22 0.46,0.23 0.46,0.24 0.45,0.25 0.44,0.27 0.43,0.28 0.42,0.29 0.4,0.3 0.39,0.31 0.37,0.33 0.35,0.33 0.34,0.35 0.32,0.36 0.29,0.37 0.27,0.38 0.25,0.39 0.23,0.4 0.2,0.41 0.17,0.42 0.14,0.43 0.12,0.44 0.08,0.45 0.05,0.46 0.02,0.46 c 0,4.29 -4.49,7.47 -11,7.47 h -14.21 c -1,0 -1.45,0 -1.45,-1 0,-0.54 0.45,-0.54 1.41,-0.54 0.09,0 1.04,0 1.89,-0.1 0.89,-0.11 1.34,-0.15 1.34,-0.79 0,-0.21 -0.05,-0.36 -0.2,-0.96 l -6.67,-26.75 c -0.5,-1.95 -0.6,-2.34 -4.53,-2.34 -0.91,0 -1.35,0 -1.35,-1 0,-0.55 0.6,-0.55 0.69,-0.55 1.41,0 4.89,0.16 6.28,0.16 1.39,0 4.94,-0.16 6.33,-0.16 0.4,0 1,0 1,1 0,0.55 -0.45,0.55 -1.39,0.55 -1.85,0 -3.25,0 -3.25,0.89 0,0.3 0.11,0.55 0.15,0.84 l 3.29,13.21 h 5.93 l -0.04,1.11 h -5.6 l 3.25,13 c 0.3,1.18 0.44,1.68 1.39,1.84 0.46,0.05 2.05,0.05 3.03,0.05 3.55,0 9.08,0 9.08,-4.94 0,-1.69 -0.79,-5.13 -2.75,-7.06 -1.28,-1.3 -3.92,-2.89 -8.4,-2.89 l 0.04,-1.11 c 4.53,0 5.43,-2.79 5.43,-4.53 0,-0.76 -0.4,-2.29 -0.69,-3.44 -0.36,-1.39 -0.8,-3.24 -0.8,-4.24 0,-5.37 5.97,-5.37 6.63,-5.37 4.23,0 5.96,5.03 5.96,5.73 0,0.6 -0.54,0.6 -0.59,0.6 -0.45,0 -0.55,-0.36 -0.64,-0.71 -1.25,-3.68 -3.39,-4.53 -4.55,-4.53 -1.64,0 -1.98,1.1 -1.98,3.05 0,1.53 0.3,4.08 0.5,5.67 0.09,0.7 0.2,1.64 0.2,2.34 0,3.83 -3.34,5.38 -4.69,5.88 z"
           inkscape:connector-curvature="0"
           style="fill:#000000;stroke-width:0" /><path
           id="path148"
           d="m 652.26,371.25 h 3.54 c 0.66,0 1.11,0 1.11,0.76 0,0.49 -0.45,0.49 -1.03,0.49 h -3.31 l 1.28,5.15 c 0.03,0.17 0.11,0.35 0.11,0.49 0,0.64 -0.48,1.12 -1.19,1.12 -0.87,0 -1.39,-0.59 -1.64,-1.5 -0.23,-0.87 0.22,0.8 -1.33,-5.26 h -3.54 c -0.66,0 -1.11,0 -1.11,-0.77 0,-0.48 0.4,-0.48 1.05,-0.48 h 3.29 l -2.04,-8.22 c -0.22,-0.88 -0.54,-2.13 -0.54,-2.58 0,-2.06 1.75,-3.31 3.74,-3.31 3.87,0 6.06,4.87 6.06,5.32 0,0.46 -0.45,0.46 -0.56,0.46 -0.41,0 -0.45,-0.08 -0.72,-0.66 -0.98,-2.2 -2.77,-4.15 -4.67,-4.15 -0.74,0 -1.22,0.45 -1.22,1.7 0,0.36 0.14,1.09 0.2,1.44 z"
           inkscape:connector-curvature="0"
           style="fill:#000000;stroke-width:0" /></g>    </g>
    <text
       xml:space="preserve"
       style="font-style:normal;font-weight:normal;font-size:10.58333302px;line-height:1.25;font-family:sans-serif;letter-spacing:0px;word-spacing:0px;fill:#000000;fill-opacity:1;stroke:none;stroke-width:0.26458332"
       x="16.036173"
       y="83.184372"
       id="text170"><tspan
         sodipodi:role="line"
         id="tspan168"
         x="16.036173"
         y="83.184372"
         style="stroke-width:0.26458332">Maximize:</tspan></text>
    <text
       xml:space="preserve"
       style="font-style:normal;font-weight:normal;font-size:10.58333302px;line-height:1.25;font-family:sans-serif;letter-spacing:0px;word-spacing:0px;fill:#000000;fill-opacity:1;stroke:none;stroke-width:0.26458332"
       x="16.036177"
       y="116.86034"
       id="text174"><tspan
         sodipodi:role="line"
         id="tspan172"
         x="16.036177"
         y="116.86034"
         style="stroke-width:0.26458332">Subject to:</tspan></text>
    <g
       id="g251"
       transform="matrix(0.61485328,0,0,0.61513394,33.398004,52.824624)">
      <g
         word-spacing="normal"
         letter-spacing="normal"
         font-size-adjust="none"
         font-stretch="normal"
         font-weight="normal"
         font-variant="normal"
         font-style="normal"
         stroke-miterlimit="10.433"
         xml:space="preserve"
         transform="matrix(0.3,0,0,-0.3,-52.5,222.75)"
         id="content"
         style="font-style:normal;font-variant:normal;font-weight:normal;font-stretch:normal;letter-spacing:normal;word-spacing:normal;text-anchor:start;fill:none;fill-opacity:1;fill-rule:evenodd;stroke:#000000;stroke-linecap:butt;stroke-linejoin:miter;stroke-miterlimit:10.43299961;stroke-dasharray:none;stroke-dashoffset:0;stroke-opacity:1"><path
           id="path214"
           d="m 472.16,421.25 0.03,0.13 0.04,0.15 0.04,0.16 0.04,0.18 0.06,0.19 0.06,0.21 0.06,0.22 0.07,0.22 0.08,0.23 0.09,0.24 0.1,0.25 0.1,0.24 0.11,0.25 0.12,0.25 0.13,0.25 0.14,0.25 0.15,0.24 0.15,0.24 0.17,0.23 0.18,0.22 0.18,0.22 0.2,0.2 0.21,0.19 0.22,0.18 0.23,0.16 0.25,0.14 0.12,0.07 0.13,0.06 0.14,0.05 0.13,0.05 0.14,0.05 0.14,0.04 0.15,0.03 0.15,0.03 0.15,0.02 0.16,0.02 0.16,0.01 h 0.16 c 0.25,0 1.44,0 2.48,-0.64 -1.39,-0.25 -2.39,-1.5 -2.39,-2.69 0,-0.79 0.55,-1.75 1.89,-1.75 1.1,0 2.69,0.89 2.69,2.89 0,2.6 -2.94,3.28 -4.63,3.28 -2.89,0 -4.64,-2.64 -5.23,-3.78 -1.25,3.28 -3.94,3.78 -5.37,3.78 -5.19,0 -8.04,-6.42 -8.04,-7.67 0,-0.5 0.5,-0.5 0.61,-0.5 0.39,0 0.55,0.11 0.64,0.55 1.69,5.28 4.99,6.53 6.68,6.53 0.95,0 2.68,-0.44 2.68,-3.33 0,-1.54 -0.84,-4.89 -2.68,-11.86 -0.8,-3.09 -2.54,-5.18 -4.74,-5.18 -0.3,0 -1.44,0 -2.48,0.65 1.25,0.24 2.34,1.28 2.34,2.69 0,1.34 -1.09,1.73 -1.84,1.73 -1.5,0 -2.75,-1.29 -2.75,-2.89 0,-2.28 2.5,-3.28 4.68,-3.28 3.3,0 5.08,3.49 5.24,3.78 0.59,-1.84 2.39,-3.78 5.37,-3.78 5.14,0 7.99,6.42 7.99,7.67 0,0.5 -0.45,0.5 -0.61,0.5 -0.44,0 -0.55,-0.2 -0.64,-0.54 -1.64,-5.33 -5.03,-6.53 -6.63,-6.53 -1.95,0 -2.75,1.59 -2.75,3.29 0,1.1 0.3,2.19 0.86,4.38 z"
           inkscape:connector-curvature="0"
           style="fill:#000000;stroke-width:0" /><path
           id="path216"
           d="m 492.54,412.53 h 3.55 c 0.65,0 1.11,0 1.11,0.76 0,0.49 -0.46,0.49 -1.04,0.49 h -3.31 l 1.28,5.15 c 0.03,0.18 0.11,0.35 0.11,0.49 0,0.64 -0.48,1.12 -1.19,1.12 -0.87,0 -1.39,-0.59 -1.64,-1.5 -0.23,-0.87 0.22,0.8 -1.32,-5.26 h -3.55 c -0.66,0 -1.11,0 -1.11,-0.77 0,-0.48 0.41,-0.48 1.05,-0.48 h 3.29 l -2.04,-8.22 c -0.22,-0.88 -0.53,-2.13 -0.53,-2.58 0,-2.06 1.75,-3.31 3.73,-3.31 3.87,0 6.06,4.87 6.06,5.33 0,0.45 -0.45,0.45 -0.56,0.45 -0.41,0 -0.45,-0.08 -0.72,-0.66 -0.98,-2.2 -2.76,-4.15 -4.67,-4.15 -0.74,0 -1.22,0.45 -1.22,1.7 0,0.36 0.14,1.09 0.2,1.44 z"
           inkscape:connector-curvature="0"
           style="fill:#000000;stroke-width:0" /><path
           id="path218"
           d="m 515.1,406.64 h 10.66 c 0.45,0 1.28,0 1.28,0.84 0,0.86 -0.8,0.86 -1.28,0.86 H 515.1 v 10.7 c 0,0.46 0,1.28 -0.84,1.28 -0.88,0 -0.88,-0.79 -0.88,-1.28 v -10.7 H 502.7 c -0.46,0 -1.3,0 -1.3,-0.83 0,-0.87 0.8,-0.87 1.3,-0.87 h 10.68 v -10.71 c 0,-0.45 0,-1.28 0.85,-1.28 0.87,0 0.87,0.8 0.87,1.28 z"
           inkscape:connector-curvature="0"
           style="fill:#000000;stroke-width:0" /><path
           id="path220"
           d="m 541.23,420.92 v 0.04 0.04 0.05 0.04 0.03 0.04 0.04 0.03 l -0.01,0.04 v 0.03 0.03 0.03 0.03 l -0.01,0.03 v 0.03 l -0.01,0.02 v 0.03 0.02 l -0.01,0.03 v 0.02 l -0.02,0.04 -0.01,0.04 -0.02,0.03 -0.02,0.03 -0.02,0.03 -0.02,0.03 -0.03,0.02 -0.03,0.02 -0.04,0.02 -0.03,0.01 -0.04,0.01 -0.05,0.02 h -0.02 -0.03 l -0.02,0.01 h -0.03 l -0.02,0.01 h -0.03 -0.03 -0.03 -0.04 l -0.03,0.01 h -0.03 -0.04 -0.04 -0.03 -0.04 -0.04 -0.04 -0.05 -0.04 -0.05 c -2.23,-2.2 -5.39,-2.23 -6.83,-2.23 v -1.25 c 0.85,0 3.15,0 5.05,0.97 v -17.77 c 0,-1.16 0,-1.61 -3.48,-1.61 h -1.32 v -1.25 c 0.63,0.03 4.91,0.14 6.21,0.14 1.08,0 5.47,-0.11 6.23,-0.14 v 1.25 h -1.32 c -3.49,0 -3.49,0.45 -3.49,1.61 z"
           inkscape:connector-curvature="0"
           style="fill:#000000;stroke-width:0" /><path
           id="path222"
           d="m 600.03,422.5 h 0.15 0.14 0.14 l 0.08,0.01 h 0.07 l 0.07,0.01 0.07,0.01 0.07,0.01 0.07,0.01 0.07,0.01 0.07,0.02 0.06,0.02 0.06,0.02 0.07,0.02 0.05,0.03 0.06,0.03 0.05,0.04 0.05,0.03 0.05,0.05 0.04,0.04 0.04,0.05 0.02,0.03 0.02,0.03 0.01,0.02 0.02,0.03 0.01,0.03 0.02,0.04 0.01,0.03 0.01,0.04 0.01,0.03 0.01,0.04 0.01,0.04 v 0.04 l 0.01,0.04 v 0.04 0.04 0.05 c 0,1 -0.95,1 -1.64,1 h -29.84 c -0.71,0 -1.64,0 -1.64,-1 0,-0.98 0.93,-0.98 1.68,-0.98 z"
           inkscape:connector-curvature="0"
           style="fill:#000000;stroke-width:0" /><path
           id="path224"
           d="m 600.08,412.82 h 0.07 0.06 l 0.14,0.01 h 0.14 0.07 l 0.07,0.01 0.07,0.01 h 0.07 l 0.07,0.01 0.06,0.02 0.07,0.01 0.07,0.02 0.06,0.02 0.06,0.02 0.06,0.02 0.06,0.03 0.05,0.03 0.06,0.04 0.04,0.04 0.05,0.04 0.04,0.05 0.02,0.02 0.02,0.03 0.02,0.02 0.02,0.03 0.02,0.03 0.01,0.03 0.01,0.03 0.02,0.03 0.01,0.04 0.01,0.03 0.01,0.04 0.01,0.04 0.01,0.04 v 0.04 l 0.01,0.04 v 0.04 0.05 0.04 c 0,1 -0.95,1 -1.69,1 h -29.75 c -0.75,0 -1.68,0 -1.68,-1 0,-1 0.93,-1 1.64,-1 z"
           inkscape:connector-curvature="0"
           style="fill:#000000;stroke-width:0" /><path
           id="path226"
           d="m 636.76,426.12 h 4.28 c 1,0 1.5,0 1.5,1 0,0.55 -0.5,0.55 -1.34,0.55 h -4.15 l 1.05,5.69 c 0.2,1.04 0.91,4.57 1.2,5.17 0.46,0.95 1.3,1.7 2.35,1.7 0.19,0 1.48,0 2.44,-0.91 -2.19,-0.18 -2.69,-1.93 -2.69,-2.68 0,-1.14 0.89,-1.74 1.84,-1.74 1.3,0 2.74,1.1 2.74,2.99 0,2.29 -2.3,3.43 -4.33,3.43 -1.7,0 -4.85,-0.89 -6.33,-5.82 -0.3,-1.05 -0.45,-1.55 -1.64,-7.83 h -3.44 c -0.95,0 -1.5,0 -1.5,-0.94 0,-0.61 0.46,-0.61 1.39,-0.61 h 3.3 l -3.75,-19.67 c -0.89,-4.83 -1.73,-9.38 -4.33,-9.38 -0.2,0 -1.44,0 -2.39,0.91 2.3,0.14 2.74,1.94 2.74,2.69 0,1.14 -0.9,1.75 -1.85,1.75 -1.3,0 -2.73,-1.1 -2.73,-3 0,-2.24 2.18,-3.44 4.23,-3.44 2.74,0 4.74,2.94 5.63,4.84 1.59,3.14 2.75,9.16 2.79,9.52 z"
           inkscape:connector-curvature="0"
           style="fill:#000000;stroke-width:0" /><path
           id="path228"
           d="m 651.42,412.53 h 3.55 c 0.65,0 1.1,0 1.1,0.76 0,0.49 -0.45,0.49 -1.03,0.49 h -3.31 l 1.28,5.15 c 0.03,0.18 0.11,0.35 0.11,0.49 0,0.64 -0.48,1.12 -1.19,1.12 -0.87,0 -1.39,-0.59 -1.64,-1.5 -0.23,-0.87 0.22,0.8 -1.32,-5.26 h -3.55 c -0.66,0 -1.11,0 -1.11,-0.77 0,-0.48 0.41,-0.48 1.04,-0.48 h 3.3 l -2.05,-8.22 c -0.21,-0.88 -0.53,-2.13 -0.53,-2.58 0,-2.06 1.75,-3.31 3.74,-3.31 3.87,0 6.06,4.87 6.06,5.33 0,0.45 -0.45,0.45 -0.56,0.45 -0.41,0 -0.46,-0.08 -0.72,-0.66 -0.99,-2.2 -2.77,-4.15 -4.67,-4.15 -0.74,0 -1.22,0.45 -1.22,1.7 0,0.36 0.14,1.09 0.2,1.44 z"
           inkscape:connector-curvature="0"
           style="fill:#000000;stroke-width:0" /><path
           id="path230"
           d="m 676.84,394.25 v 0.02 0.03 0.01 0.02 0.01 l -0.01,0.02 v 0.01 l -0.01,0.02 -0.01,0.02 -0.01,0.02 -0.01,0.02 -0.02,0.03 -0.01,0.02 -0.02,0.03 -0.02,0.03 -0.03,0.03 -0.02,0.03 -0.03,0.04 -0.02,0.02 -0.01,0.02 -0.02,0.02 -0.02,0.02 -0.02,0.02 -0.02,0.03 -0.02,0.02 -0.02,0.02 -0.02,0.03 -0.03,0.02 -0.02,0.03 -0.03,0.03 -0.03,0.03 -0.02,0.03 -0.03,0.03 -0.03,0.03 -0.03,0.03 -0.03,0.03 -0.04,0.04 -0.03,0.03 -0.04,0.04 -0.03,0.03 -0.04,0.04 -0.04,0.04 c -6.22,6.28 -7.81,15.69 -7.81,23.31 0,8.67 1.89,17.35 8.01,23.56 0.64,0.61 0.64,0.71 0.64,0.86 0,0.35 -0.18,0.49 -0.48,0.49 -0.5,0 -4.98,-3.38 -7.92,-9.7 -2.55,-5.49 -3.14,-11.02 -3.14,-15.21 0,-3.89 0.54,-9.9 3.28,-15.54 2.98,-6.13 7.28,-9.36 7.78,-9.36 0.3,0 0.48,0.14 0.48,0.5 z"
           inkscape:connector-curvature="0"
           style="fill:#000000;stroke-width:0" /><path
           id="path232"
           d="m 696.32,421.25 0.03,0.13 0.03,0.15 0.04,0.16 0.05,0.18 0.05,0.19 0.06,0.21 0.07,0.22 0.07,0.22 0.08,0.23 0.09,0.24 0.09,0.25 0.11,0.24 0.11,0.25 0.12,0.25 0.13,0.25 0.13,0.25 0.15,0.24 0.16,0.24 0.16,0.23 0.18,0.22 0.19,0.22 0.2,0.2 0.21,0.19 0.22,0.18 0.23,0.16 0.24,0.14 0.13,0.07 0.13,0.06 0.13,0.05 0.14,0.05 0.14,0.05 0.14,0.04 0.15,0.03 0.15,0.03 0.15,0.02 0.15,0.02 0.16,0.01 h 0.16 c 0.25,0 1.44,0 2.49,-0.64 -1.39,-0.25 -2.39,-1.5 -2.39,-2.69 0,-0.79 0.55,-1.75 1.89,-1.75 1.09,0 2.69,0.89 2.69,2.89 0,2.6 -2.94,3.28 -4.63,3.28 -2.89,0 -4.64,-2.64 -5.23,-3.78 -1.25,3.28 -3.94,3.78 -5.38,3.78 -5.19,0 -8.03,-6.42 -8.03,-7.67 0,-0.5 0.5,-0.5 0.61,-0.5 0.39,0 0.55,0.11 0.64,0.55 1.69,5.28 4.99,6.53 6.67,6.53 0.95,0 2.69,-0.44 2.69,-3.33 0,-1.54 -0.84,-4.89 -2.69,-11.86 -0.8,-3.09 -2.53,-5.18 -4.73,-5.18 -0.3,0 -1.44,0 -2.49,0.65 1.25,0.24 2.35,1.28 2.35,2.69 0,1.34 -1.1,1.73 -1.85,1.73 -1.5,0 -2.75,-1.29 -2.75,-2.89 0,-2.28 2.5,-3.28 4.69,-3.28 3.3,0 5.08,3.49 5.23,3.78 0.6,-1.84 2.4,-3.78 5.38,-3.78 5.14,0 7.99,6.42 7.99,7.67 0,0.5 -0.46,0.5 -0.62,0.5 -0.43,0 -0.54,-0.2 -0.63,-0.54 -1.65,-5.33 -5.04,-6.53 -6.63,-6.53 -1.95,0 -2.75,1.59 -2.75,3.29 0,1.1 0.3,2.19 0.86,4.38 z"
           inkscape:connector-curvature="0"
           style="fill:#000000;stroke-width:0" /><path
           id="path234"
           d="m 716.7,412.53 h 3.55 c 0.65,0 1.1,0 1.1,0.76 0,0.49 -0.45,0.49 -1.03,0.49 h -3.31 l 1.28,5.15 c 0.03,0.18 0.11,0.35 0.11,0.49 0,0.64 -0.48,1.12 -1.18,1.12 -0.88,0 -1.4,-0.59 -1.65,-1.5 -0.23,-0.87 0.22,0.8 -1.32,-5.26 h -3.55 c -0.66,0 -1.11,0 -1.11,-0.77 0,-0.48 0.41,-0.48 1.05,-0.48 h 3.29 l -2.04,-8.22 c -0.22,-0.88 -0.54,-2.13 -0.54,-2.58 0,-2.06 1.75,-3.31 3.74,-3.31 3.88,0 6.06,4.87 6.06,5.33 0,0.45 -0.45,0.45 -0.56,0.45 -0.41,0 -0.45,-0.08 -0.72,-0.66 -0.98,-2.2 -2.77,-4.15 -4.67,-4.15 -0.73,0 -1.22,0.45 -1.22,1.7 0,0.36 0.14,1.09 0.2,1.44 z"
           inkscape:connector-curvature="0"
           style="fill:#000000;stroke-width:0" /><path
           id="path236"
           d="m 735.87,406.25 v 0.3 l -0.01,0.3 -0.02,0.29 -0.03,0.28 -0.03,0.27 -0.04,0.26 -0.04,0.26 -0.05,0.24 -0.06,0.24 -0.06,0.23 -0.08,0.22 -0.07,0.21 -0.09,0.2 -0.08,0.19 -0.1,0.19 -0.1,0.17 -0.11,0.16 -0.11,0.16 -0.12,0.14 -0.12,0.13 -0.13,0.13 -0.13,0.11 -0.14,0.1 -0.14,0.1 -0.15,0.08 -0.16,0.07 -0.16,0.06 -0.16,0.05 -0.17,0.04 -0.17,0.03 -0.18,0.01 -0.18,0.01 c -1.64,0 -2.64,-1.25 -2.64,-2.64 0,-1.34 1,-2.64 2.64,-2.64 0.6,0 1.25,0.2 1.75,0.64 0.14,0.11 0.21,0.16 0.25,0.16 0.05,0 0.1,-0.05 0.1,-0.75 0,-3.69 -1.74,-6.68 -3.39,-8.32 -0.55,-0.54 -0.55,-0.65 -0.55,-0.79 0,-0.36 0.25,-0.55 0.5,-0.55 0.55,0 4.53,3.83 4.53,9.66 z"
           inkscape:connector-curvature="0"
           style="fill:#000000;stroke-width:0" /><path
           id="path238"
           d="m 765.27,409 0.06,-0.19 0.06,-0.19 0.07,-0.18 0.07,-0.18 0.08,-0.17 0.09,-0.16 0.1,-0.16 0.1,-0.16 0.1,-0.15 0.11,-0.15 0.12,-0.14 0.12,-0.13 0.13,-0.13 0.13,-0.12 0.14,-0.12 0.14,-0.11 0.15,-0.11 0.15,-0.1 0.16,-0.09 0.16,-0.09 0.16,-0.08 0.17,-0.07 0.18,-0.07 0.17,-0.06 0.18,-0.06 0.18,-0.04 0.19,-0.05 0.19,-0.03 0.19,-0.02 0.19,-0.02 0.2,-0.01 0.2,-0.01 c 1.74,0 2.89,1.14 3.69,2.74 0.84,1.79 1.48,4.84 1.48,4.93 0,0.5 -0.43,0.5 -0.59,0.5 -0.5,0 -0.55,-0.2 -0.7,-0.9 -0.69,-2.78 -1.64,-6.17 -3.74,-6.17 -1.05,0 -1.53,0.65 -1.53,2.29 0,1.1 0.59,3.44 0.98,5.17 l 1.41,5.4 c 0.14,0.75 0.64,2.64 0.84,3.39 0.25,1.14 0.75,3.03 0.75,3.32 0,0.91 -0.7,1.35 -1.45,1.35 -0.25,0 -1.55,-0.05 -1.94,-1.74 -0.95,-3.64 -3.14,-12.36 -3.73,-15 -0.06,-0.2 -2.05,-4.18 -5.69,-4.18 -2.59,0 -3.09,2.25 -3.09,4.09 0,2.78 1.4,6.72 2.7,10.16 0.6,1.5 0.85,2.18 0.85,3.14 0,2.23 -1.6,4.07 -4.1,4.07 -4.73,0 -6.58,-7.21 -6.58,-7.67 0,-0.5 0.5,-0.5 0.61,-0.5 0.5,0 0.55,0.11 0.8,0.91 1.23,4.33 3.14,6.17 5.03,6.17 0.44,0 1.25,-0.05 1.25,-1.64 0,-1.2 -0.56,-2.64 -0.86,-3.39 -1.84,-4.94 -2.89,-8.02 -2.89,-10.45 0,-4.74 3.44,-5.99 6.14,-5.99 3.28,0 5.08,2.24 5.92,3.35 z"
           inkscape:connector-curvature="0"
           style="fill:#000000;stroke-width:0" /><path
           id="path240"
           d="m 784.98,412.53 h 3.54 c 0.66,0 1.11,0 1.11,0.76 0,0.49 -0.45,0.49 -1.03,0.49 h -3.31 l 1.28,5.15 c 0.03,0.18 0.11,0.35 0.11,0.49 0,0.64 -0.48,1.12 -1.19,1.12 -0.87,0 -1.39,-0.59 -1.64,-1.5 -0.23,-0.87 0.22,0.8 -1.33,-5.26 h -3.54 c -0.66,0 -1.11,0 -1.11,-0.77 0,-0.48 0.4,-0.48 1.04,-0.48 h 3.3 l -2.05,-8.22 c -0.21,-0.88 -0.53,-2.13 -0.53,-2.58 0,-2.06 1.75,-3.31 3.74,-3.31 3.87,0 6.06,4.87 6.06,5.33 0,0.45 -0.45,0.45 -0.56,0.45 -0.41,0 -0.46,-0.08 -0.72,-0.66 -0.99,-2.2 -2.77,-4.15 -4.67,-4.15 -0.74,0 -1.22,0.45 -1.22,1.7 0,0.36 0.14,1.09 0.2,1.44 z"
           inkscape:connector-curvature="0"
           style="fill:#000000;stroke-width:0" /><path
           id="path242"
           d="m 804.03,406.25 v 0.3 l -0.01,0.3 -0.02,0.29 -0.03,0.28 -0.03,0.27 -0.04,0.26 -0.04,0.26 -0.05,0.24 -0.06,0.24 -0.06,0.23 -0.08,0.22 -0.07,0.21 -0.09,0.2 -0.08,0.19 -0.1,0.19 -0.1,0.17 -0.11,0.16 -0.11,0.16 -0.12,0.14 -0.12,0.13 -0.13,0.13 -0.13,0.11 -0.14,0.1 -0.14,0.1 -0.15,0.08 -0.16,0.07 -0.16,0.06 -0.16,0.05 -0.17,0.04 -0.17,0.03 -0.18,0.01 -0.18,0.01 c -1.64,0 -2.64,-1.25 -2.64,-2.64 0,-1.34 1,-2.64 2.64,-2.64 0.6,0 1.25,0.2 1.75,0.64 0.14,0.11 0.21,0.16 0.25,0.16 0.05,0 0.1,-0.05 0.1,-0.75 0,-3.69 -1.74,-6.68 -3.39,-8.32 -0.55,-0.54 -0.55,-0.65 -0.55,-0.79 0,-0.36 0.25,-0.55 0.5,-0.55 0.55,0 4.53,3.83 4.53,9.66 z"
           inkscape:connector-curvature="0"
           style="fill:#000000;stroke-width:0" /><path
           id="path244"
           d="m 825.31,417.71 0.14,0.01 h 0.16 0.16 0.18 l 0.19,0.01 h 0.2 l 0.21,0.01 0.21,0.01 0.23,0.01 0.23,0.01 0.24,0.01 0.24,0.02 0.26,0.02 0.25,0.02 0.52,0.05 0.54,0.07 0.54,0.07 0.55,0.1 0.54,0.11 0.53,0.12 0.26,0.07 0.26,0.08 0.26,0.08 0.24,0.08 0.25,0.09 0.23,0.1 c 3.49,1.5 3.74,4.43 3.74,5.12 0,2.2 -1.89,4.23 -5.33,4.23 v -1.09 c 2.34,0 3.69,-1.44 3.69,-3.14 0,-5.17 -7.97,-5.17 -10.02,-5.17 h -2.04 c 1.95,7.56 7.07,8.31 8.37,8.31 v 1.09 c -5.53,0 -13.05,-4.82 -13.05,-13.54 0,-5.08 2.94,-9.02 7.81,-9.02 7.13,0 11.32,5.28 11.32,5.88 0,0.29 -0.3,0.65 -0.6,0.65 -0.25,0 -0.34,-0.11 -0.65,-0.5 -3.94,-4.93 -9.36,-4.93 -9.95,-4.93 -3.9,0 -4.35,4.18 -4.35,5.78 0,0.59 0.05,2.14 0.8,5.18 z"
           inkscape:connector-curvature="0"
           style="fill:#000000;stroke-width:0" /><path
           id="path246"
           d="m 847.74,412.53 h 3.54 c 0.66,0 1.12,0 1.12,0.76 0,0.49 -0.46,0.49 -1.04,0.49 h -3.31 l 1.28,5.15 c 0.03,0.18 0.11,0.35 0.11,0.49 0,0.64 -0.48,1.12 -1.19,1.12 -0.87,0 -1.39,-0.59 -1.64,-1.5 -0.23,-0.87 0.22,0.8 -1.33,-5.26 h -3.54 c -0.66,0 -1.11,0 -1.11,-0.77 0,-0.48 0.4,-0.48 1.05,-0.48 h 3.29 l -2.04,-8.22 c -0.22,-0.88 -0.53,-2.13 -0.53,-2.58 0,-2.06 1.75,-3.31 3.73,-3.31 3.87,0 6.06,4.87 6.06,5.33 0,0.45 -0.45,0.45 -0.56,0.45 -0.41,0 -0.45,-0.08 -0.72,-0.66 -0.98,-2.2 -2.76,-4.15 -4.67,-4.15 -0.74,0 -1.22,0.45 -1.22,1.7 0,0.36 0.14,1.09 0.2,1.44 z"
           inkscape:connector-curvature="0"
           style="fill:#000000;stroke-width:0" /><path
           id="path248"
           d="m 871.19,418.65 v 0.37 l -0.01,0.39 v 0.39 l -0.02,0.41 -0.04,0.84 -0.06,0.88 -0.08,0.92 -0.11,0.95 -0.13,0.97 -0.16,1.01 -0.2,1.02 -0.23,1.03 -0.27,1.05 -0.3,1.06 -0.35,1.07 -0.39,1.07 -0.22,0.53 -0.22,0.53 -0.24,0.53 -0.25,0.53 c -2.98,6.12 -7.26,9.36 -7.76,9.36 -0.3,0 -0.5,-0.19 -0.5,-0.49 0,-0.15 0,-0.25 0.93,-1.15 4.89,-4.92 7.74,-12.85 7.74,-23.27 0,-8.51 -1.85,-17.28 -8.04,-23.56 -0.63,-0.59 -0.63,-0.7 -0.63,-0.84 0,-0.3 0.2,-0.5 0.5,-0.5 0.5,0 4.96,3.39 7.92,9.71 2.53,5.47 3.12,11 3.12,15.19 z"
           inkscape:connector-curvature="0"
           style="fill:#000000;stroke-width:0" /></g>    </g>
    <g
       id="g712"
       transform="matrix(0.75815996,0,0,0.67805318,20.100469,60.622094)">
      <g
         word-spacing="normal"
         letter-spacing="normal"
         font-size-adjust="none"
         font-stretch="normal"
         font-weight="normal"
         font-variant="normal"
         font-style="normal"
         stroke-miterlimit="10.433"
         xml:space="preserve"
         transform="matrix(0.3,0,0,-0.3,-52.5,222.75)"
         id="g710"
         style="font-style:normal;font-variant:normal;font-weight:normal;font-stretch:normal;letter-spacing:normal;word-spacing:normal;text-anchor:start;fill:none;fill-opacity:1;fill-rule:evenodd;stroke:#000000;stroke-linecap:butt;stroke-linejoin:miter;stroke-miterlimit:10.43299961;stroke-dasharray:none;stroke-dashoffset:0;stroke-opacity:1"><path
           id="path692"
           d="m 472.96,409 0.05,-0.19 0.06,-0.19 0.07,-0.18 0.08,-0.18 0.08,-0.17 0.09,-0.16 0.09,-0.16 0.1,-0.16 0.11,-0.15 0.11,-0.15 0.11,-0.14 0.13,-0.13 0.12,-0.13 0.14,-0.12 0.14,-0.12 0.14,-0.11 0.15,-0.11 0.15,-0.1 0.15,-0.09 0.16,-0.09 0.17,-0.08 0.17,-0.07 0.17,-0.07 0.18,-0.06 0.17,-0.06 0.19,-0.04 0.18,-0.05 0.19,-0.03 0.19,-0.02 0.2,-0.02 0.2,-0.01 0.19,-0.01 c 1.74,0 2.9,1.14 3.69,2.74 0.85,1.79 1.49,4.84 1.49,4.93 0,0.5 -0.44,0.5 -0.6,0.5 -0.5,0 -0.54,-0.2 -0.7,-0.9 -0.69,-2.78 -1.64,-6.17 -3.73,-6.17 -1.05,0 -1.54,0.65 -1.54,2.29 0,1.1 0.6,3.44 0.99,5.17 l 1.4,5.4 c 0.15,0.75 0.65,2.64 0.85,3.39 0.25,1.14 0.75,3.03 0.75,3.32 0,0.91 -0.7,1.35 -1.45,1.35 -0.25,0 -1.55,-0.05 -1.94,-1.74 -0.96,-3.64 -3.14,-12.36 -3.74,-15 -0.06,-0.2 -2.04,-4.18 -5.68,-4.18 -2.6,0 -3.1,2.25 -3.1,4.09 0,2.78 1.41,6.72 2.71,10.16 0.59,1.5 0.84,2.18 0.84,3.14 0,2.23 -1.59,4.07 -4.09,4.07 -4.74,0 -6.58,-7.21 -6.58,-7.67 0,-0.5 0.5,-0.5 0.61,-0.5 0.5,0 0.54,0.11 0.79,0.91 1.24,4.33 3.14,6.17 5.03,6.17 0.44,0 1.25,-0.05 1.25,-1.64 0,-1.2 -0.56,-2.64 -0.85,-3.39 -1.85,-4.94 -2.9,-8.02 -2.9,-10.45 0,-4.74 3.44,-5.99 6.15,-5.99 3.28,0 5.07,2.24 5.92,3.35 z"
           inkscape:connector-curvature="0"
           style="fill:#000000;stroke-width:0" /><path
           id="path694"
           d="m 492.66,412.53 h 3.54 c 0.66,0 1.11,0 1.11,0.76 0,0.49 -0.45,0.49 -1.03,0.49 h -3.31 l 1.28,5.15 c 0.03,0.18 0.11,0.35 0.11,0.49 0,0.64 -0.48,1.12 -1.19,1.12 -0.87,0 -1.39,-0.59 -1.64,-1.5 -0.23,-0.87 0.22,0.8 -1.33,-5.26 h -3.54 c -0.66,0 -1.11,0 -1.11,-0.77 0,-0.48 0.4,-0.48 1.04,-0.48 h 3.3 l -2.05,-8.22 c -0.22,-0.88 -0.53,-2.13 -0.53,-2.58 0,-2.06 1.75,-3.31 3.74,-3.31 3.87,0 6.06,4.87 6.06,5.33 0,0.45 -0.45,0.45 -0.56,0.45 -0.41,0 -0.46,-0.08 -0.72,-0.66 -0.99,-2.2 -2.77,-4.15 -4.67,-4.15 -0.74,0 -1.22,0.45 -1.22,1.7 0,0.36 0.14,1.09 0.2,1.44 z"
           inkscape:connector-curvature="0"
           style="fill:#000000;stroke-width:0" /><path
           id="path696"
           d="m 549.63,422.5 h 0.14 0.15 0.14 l 0.07,0.01 h 0.08 l 0.07,0.01 0.07,0.01 0.07,0.01 0.07,0.01 0.07,0.01 0.06,0.02 0.07,0.02 0.06,0.02 0.06,0.02 0.06,0.03 0.06,0.03 0.05,0.04 0.05,0.03 0.05,0.05 0.04,0.04 0.04,0.05 0.02,0.03 0.02,0.03 0.01,0.02 0.02,0.03 0.01,0.03 0.01,0.04 0.02,0.03 0.01,0.04 0.01,0.03 0.01,0.04 v 0.04 l 0.01,0.04 v 0.04 l 0.01,0.04 v 0.04 0.05 c 0,1 -0.95,1 -1.64,1 h -29.84 c -0.71,0 -1.64,0 -1.64,-1 0,-0.98 0.93,-0.98 1.68,-0.98 z"
           inkscape:connector-curvature="0"
           style="fill:#000000;stroke-width:0" /><path
           id="path698"
           d="m 549.68,412.82 h 0.07 0.06 l 0.14,0.01 h 0.14 0.07 l 0.07,0.01 0.07,0.01 h 0.06 l 0.07,0.01 0.07,0.02 0.07,0.01 0.06,0.02 0.07,0.02 0.06,0.02 0.06,0.02 0.05,0.03 0.06,0.03 0.05,0.04 0.05,0.04 0.05,0.04 0.04,0.05 0.02,0.02 0.02,0.03 0.02,0.02 0.02,0.03 0.01,0.03 0.02,0.03 0.01,0.03 0.01,0.03 0.02,0.04 0.01,0.03 0.01,0.04 0.01,0.04 v 0.04 l 0.01,0.04 v 0.04 l 0.01,0.04 v 0.05 0.04 c 0,1 -0.95,1 -1.69,1 h -29.75 c -0.75,0 -1.68,0 -1.68,-1 0,-1 0.93,-1 1.64,-1 z"
           inkscape:connector-curvature="0"
           style="fill:#000000;stroke-width:0" /><path
           id="path700"
           d="m 581.28,424.78 h 5.63 c -1.64,-7.38 -2.1,-9.52 -2.1,-12.85 0,-0.75 0,-2.09 0.41,-3.79 0.5,-2.19 1.05,-2.49 1.8,-2.49 0.98,0 2.03,0.89 2.03,1.89 0,0.3 0,0.41 -0.3,1.1 -1.44,3.59 -1.44,6.82 -1.44,8.22 0,2.64 0.35,5.34 0.89,7.92 h 5.69 c 0.64,0 2.44,0 2.44,1.7 0,1.19 -1.05,1.19 -2,1.19 h -16.69 c -1.09,0 -2.98,0 -5.17,-2.35 -1.75,-1.93 -3.05,-4.23 -3.05,-4.48 0,-0.05 0,-0.48 0.6,-0.48 0.4,0 0.5,0.18 0.79,0.59 2.46,3.83 5.35,3.83 6.33,3.83 h 2.84 c -1.59,-6.02 -4.28,-12.05 -6.37,-16.58 -0.41,-0.75 -0.41,-0.86 -0.41,-1.2 0,-0.96 0.8,-1.35 1.46,-1.35 1.5,0 1.89,1.39 2.48,3.24 0.7,2.29 0.7,2.39 1.34,4.89 z"
           inkscape:connector-curvature="0"
           style="fill:#000000;stroke-width:0" /><path
           id="path702"
           d="m 614.8,394.25 v 0.02 0.03 0.01 0.02 l -0.01,0.01 v 0.02 l -0.01,0.01 v 0.02 l -0.01,0.02 -0.01,0.02 -0.02,0.02 -0.01,0.03 -0.02,0.02 -0.01,0.03 -0.03,0.03 -0.02,0.03 -0.03,0.03 -0.03,0.04 -0.01,0.02 -0.02,0.02 -0.01,0.02 -0.02,0.02 -0.02,0.02 -0.02,0.03 -0.02,0.02 -0.03,0.02 -0.02,0.03 -0.02,0.02 -0.03,0.03 -0.02,0.03 -0.03,0.03 -0.03,0.03 -0.02,0.03 -0.03,0.03 -0.04,0.03 -0.03,0.03 -0.03,0.04 -0.03,0.03 -0.04,0.04 -0.04,0.03 -0.03,0.04 -0.04,0.04 c -6.22,6.28 -7.81,15.69 -7.81,23.31 0,8.67 1.88,17.35 8.01,23.56 0.64,0.61 0.64,0.71 0.64,0.86 0,0.35 -0.19,0.49 -0.48,0.49 -0.5,0 -4.99,-3.38 -7.92,-9.7 -2.55,-5.49 -3.15,-11.02 -3.15,-15.21 0,-3.89 0.55,-9.9 3.28,-15.54 2.99,-6.13 7.29,-9.36 7.79,-9.36 0.29,0 0.48,0.14 0.48,0.5 z"
           inkscape:connector-curvature="0"
           style="fill:#000000;stroke-width:0" /><path
           id="path704"
           d="m 634.27,421.25 0.03,0.13 0.04,0.15 0.04,0.16 0.05,0.18 0.05,0.19 0.06,0.21 0.06,0.22 0.08,0.22 0.08,0.23 0.08,0.24 0.1,0.25 0.1,0.24 0.11,0.25 0.12,0.25 0.13,0.25 0.14,0.25 0.15,0.24 0.15,0.24 0.17,0.23 0.18,0.22 0.19,0.22 0.19,0.2 0.21,0.19 0.22,0.18 0.24,0.16 0.24,0.14 0.13,0.07 0.13,0.06 0.13,0.05 0.14,0.05 0.14,0.05 0.14,0.04 0.14,0.03 0.15,0.03 0.15,0.02 0.16,0.02 0.16,0.01 h 0.16 c 0.25,0 1.44,0 2.49,-0.64 -1.4,-0.25 -2.4,-1.5 -2.4,-2.69 0,-0.79 0.55,-1.75 1.9,-1.75 1.09,0 2.68,0.89 2.68,2.89 0,2.6 -2.93,3.28 -4.62,3.28 -2.89,0 -4.64,-2.64 -5.24,-3.78 -1.25,3.28 -3.93,3.78 -5.37,3.78 -5.19,0 -8.03,-6.42 -8.03,-7.67 0,-0.5 0.5,-0.5 0.61,-0.5 0.39,0 0.54,0.11 0.64,0.55 1.68,5.28 4.98,6.53 6.67,6.53 0.95,0 2.69,-0.44 2.69,-3.33 0,-1.54 -0.85,-4.89 -2.69,-11.86 -0.8,-3.09 -2.53,-5.18 -4.74,-5.18 -0.29,0 -1.43,0 -2.48,0.65 1.25,0.24 2.34,1.28 2.34,2.69 0,1.34 -1.09,1.73 -1.84,1.73 -1.5,0 -2.75,-1.29 -2.75,-2.89 0,-2.28 2.5,-3.28 4.69,-3.28 3.29,0 5.08,3.49 5.23,3.78 0.6,-1.84 2.39,-3.78 5.38,-3.78 5.14,0 7.98,6.42 7.98,7.67 0,0.5 -0.45,0.5 -0.61,0.5 -0.44,0 -0.54,-0.2 -0.64,-0.54 -1.64,-5.33 -5.03,-6.53 -6.62,-6.53 -1.96,0 -2.75,1.59 -2.75,3.29 0,1.1 0.29,2.19 0.86,4.38 z"
           inkscape:connector-curvature="0"
           style="fill:#000000;stroke-width:0" /><path
           id="path706"
           d="m 654.66,412.53 h 3.54 c 0.66,0 1.11,0 1.11,0.76 0,0.49 -0.45,0.49 -1.03,0.49 h -3.31 l 1.28,5.15 c 0.03,0.18 0.11,0.35 0.11,0.49 0,0.64 -0.48,1.12 -1.19,1.12 -0.87,0 -1.39,-0.59 -1.64,-1.5 -0.23,-0.87 0.22,0.8 -1.33,-5.26 h -3.54 c -0.66,0 -1.11,0 -1.11,-0.77 0,-0.48 0.4,-0.48 1.04,-0.48 h 3.3 l -2.05,-8.22 c -0.22,-0.88 -0.53,-2.13 -0.53,-2.58 0,-2.06 1.75,-3.31 3.74,-3.31 3.87,0 6.06,4.87 6.06,5.33 0,0.45 -0.45,0.45 -0.56,0.45 -0.41,0 -0.46,-0.08 -0.72,-0.66 -0.99,-2.2 -2.77,-4.15 -4.67,-4.15 -0.74,0 -1.22,0.45 -1.22,1.7 0,0.36 0.14,1.09 0.2,1.44 z"
           inkscape:connector-curvature="0"
           style="fill:#000000;stroke-width:0" /><path
           id="path708"
           d="m 677.99,418.65 v 0.37 0.39 l -0.01,0.39 -0.02,0.41 -0.04,0.84 -0.06,0.88 -0.08,0.92 -0.11,0.95 -0.13,0.97 -0.16,1.01 -0.2,1.02 -0.23,1.03 -0.27,1.05 -0.3,1.06 -0.35,1.07 -0.39,1.07 -0.22,0.53 -0.22,0.53 -0.24,0.53 -0.25,0.53 c -2.98,6.12 -7.26,9.36 -7.76,9.36 -0.3,0 -0.5,-0.19 -0.5,-0.49 0,-0.15 0,-0.25 0.93,-1.15 4.89,-4.92 7.74,-12.85 7.74,-23.27 0,-8.51 -1.85,-17.28 -8.03,-23.56 -0.64,-0.59 -0.64,-0.7 -0.64,-0.84 0,-0.3 0.2,-0.5 0.5,-0.5 0.5,0 4.96,3.39 7.92,9.71 2.53,5.47 3.12,11 3.12,15.19 z"
           inkscape:connector-curvature="0"
           style="fill:#000000;stroke-width:0" /></g>    </g>
  </g>
</svg>
