<?xml version="1.0" encoding="UTF-8" standalone="no"?>
<!-- Created with Inkscape (http://www.inkscape.org/) -->

<svg
   xmlns:dc="http://purl.org/dc/elements/1.1/"
   xmlns:cc="http://creativecommons.org/ns#"
   xmlns:rdf="http://www.w3.org/1999/02/22-rdf-syntax-ns#"
   xmlns:svg="http://www.w3.org/2000/svg"
   xmlns="http://www.w3.org/2000/svg"
   xmlns:sodipodi="http://sodipodi.sourceforge.net/DTD/sodipodi-0.dtd"
   xmlns:inkscape="http://www.inkscape.org/namespaces/inkscape"
   sodipodi:docname="network1.svg"
   id="svg8"
   version="1.1"
   viewBox="0 0 210 297"
   height="297mm"
   width="210mm"
   inkscape:version="0.92.5 (2060ec1f9f, 2020-04-08)">
  <defs
     id="defs2">
    <marker
       inkscape:stockid="Arrow1Lend"
       orient="auto"
       refY="0.0"
       refX="0.0"
       id="marker1314"
       style="overflow:visible;"
       inkscape:isstock="true">
      <path
         id="path1312"
         d="M 0.0,0.0 L 5.0,-5.0 L -12.5,0.0 L 5.0,5.0 L 0.0,0.0 z "
         style="fill-rule:evenodd;stroke:#000000;stroke-width:1pt;stroke-opacity:1;fill:#000000;fill-opacity:1"
         transform="scale(0.8) rotate(180) translate(12.5,0)" />
    </marker>
    <marker
       inkscape:isstock="true"
       style="overflow:visible;"
       id="marker1246"
       refX="0.0"
       refY="0.0"
       orient="auto"
       inkscape:stockid="Arrow1Lend"
       inkscape:collect="always">
      <path
         transform="scale(0.8) rotate(180) translate(12.5,0)"
         style="fill-rule:evenodd;stroke:#000000;stroke-width:1pt;stroke-opacity:1;fill:#000000;fill-opacity:1"
         d="M 0.0,0.0 L 5.0,-5.0 L -12.5,0.0 L 5.0,5.0 L 0.0,0.0 z "
         id="path1244" />
    </marker>
    <marker
       inkscape:isstock="true"
       style="overflow:visible;"
       id="marker1163"
       refX="0.0"
       refY="0.0"
       orient="auto"
       inkscape:stockid="Arrow1Lend">
      <path
         transform="scale(0.8) rotate(180) translate(12.5,0)"
         style="fill-rule:evenodd;stroke:#000000;stroke-width:1pt;stroke-opacity:1;fill:#000000;fill-opacity:1"
         d="M 0.0,0.0 L 5.0,-5.0 L -12.5,0.0 L 5.0,5.0 L 0.0,0.0 z "
         id="path1161" />
    </marker>
    <marker
       inkscape:stockid="Arrow1Lend"
       orient="auto"
       refY="0.0"
       refX="0.0"
       id="Arrow1Lend"
       style="overflow:visible;"
       inkscape:isstock="true"
       inkscape:collect="always">
      <path
         id="path826"
         d="M 0.0,0.0 L 5.0,-5.0 L -12.5,0.0 L 5.0,5.0 L 0.0,0.0 z "
         style="fill-rule:evenodd;stroke:#000000;stroke-width:1pt;stroke-opacity:1;fill:#000000;fill-opacity:1"
         transform="scale(0.8) rotate(180) translate(12.5,0)" />
    </marker>
    <marker
       inkscape:stockid="Arrow1Lstart"
       orient="auto"
       refY="0.0"
       refX="0.0"
       id="Arrow1Lstart"
       style="overflow:visible"
       inkscape:isstock="true">
      <path
         id="path823"
         d="M 0.0,0.0 L 5.0,-5.0 L -12.5,0.0 L 5.0,5.0 L 0.0,0.0 z "
         style="fill-rule:evenodd;stroke:#000000;stroke-width:1pt;stroke-opacity:1;fill:#000000;fill-opacity:1"
         transform="scale(0.8) translate(12.5,0)" />
    </marker>
  </defs>
  <sodipodi:namedview
     id="base"
     pagecolor="#ffffff"
     bordercolor="#666666"
     borderopacity="1.0"
     inkscape:pageopacity="0.0"
     inkscape:pageshadow="2"
     inkscape:zoom="1.4"
     inkscape:cx="302.14267"
     inkscape:cy="876.56011"
     inkscape:document-units="mm"
     inkscape:current-layer="layer1"
     showgrid="false"
     inkscape:window-width="1538"
     inkscape:window-height="960"
     inkscape:window-x="62"
     inkscape:window-y="27"
     inkscape:window-maximized="1" />
  <metadata
     id="metadata5">
    <rdf:RDF>
      <cc:Work
         rdf:about="">
        <dc:format>image/svg+xml</dc:format>
        <dc:type
           rdf:resource="http://purl.org/dc/dcmitype/StillImage" />
      </cc:Work>
    </rdf:RDF>
  </metadata>
  <g
     inkscape:label="Layer 1"
     inkscape:groupmode="layer"
     id="layer1">
    <path
       style="fill:none;stroke:#000000;stroke-width:0.26499999;stroke-linecap:butt;stroke-linejoin:miter;stroke-miterlimit:4;stroke-dasharray:none;stroke-opacity:1;marker-end:url(#Arrow1Lend)"
       d="M 95.226233,79.067886 95.061011,26.936011"
       id="path16"
       inkscape:connector-curvature="0" />
    <path
       style="fill:none;stroke:#000000;stroke-width:0.26458332px;stroke-linecap:butt;stroke-linejoin:miter;stroke-opacity:1;marker-end:url(#marker1246)"
       d="M 82.942007,63.570863 130.59078,81.553571"
       id="path1290"
       inkscape:connector-curvature="0" />
    <path
       style="fill:none;stroke:#000000;stroke-width:0.26458332px;stroke-linecap:butt;stroke-linejoin:miter;stroke-opacity:1;marker-end:url(#marker1314)"
       d="M 83.319983,73.398243 127.37797,55.473212"
       id="path1304"
       inkscape:connector-curvature="0" />
    <path
       style="fill:none;stroke:#000000;stroke-width:0.26458332px;stroke-linecap:butt;stroke-linejoin:miter;stroke-opacity:1"
       d="M 97.139878,52.071428 127,88.924105"
       id="path1379"
       inkscape:connector-curvature="0" />
    <g
       id="g1403"
       transform="matrix(0.31890147,0,0,0.31641636,105.39004,51.596476)">
      <g
         word-spacing="normal"
         letter-spacing="normal"
         font-size-adjust="none"
         font-stretch="normal"
         font-weight="normal"
         font-variant="normal"
         font-style="normal"
         stroke-miterlimit="10.433"
         xml:space="preserve"
         transform="matrix(0.3,0,0,-0.3,-52.5,222.75)"
         id="content"
         style="font-style:normal;font-variant:normal;font-weight:normal;font-stretch:normal;letter-spacing:normal;word-spacing:normal;text-anchor:start;fill:none;fill-opacity:1;fill-rule:evenodd;stroke:#000000;stroke-linecap:butt;stroke-linejoin:miter;stroke-miterlimit:10.43299961;stroke-dasharray:none;stroke-dashoffset:0;stroke-opacity:1"><path
           id="path1398"
           d="m 479.68,426.68 -4.18,9.91 c -0.15,0.41 -0.25,0.59 -0.25,0.64 0,0.31 0.85,1.25 2.94,1.45 0.5,0.05 1,0.1 1,0.96 0,0.59 -0.61,0.59 -0.75,0.59 -2.05,0 -4.19,-0.16 -6.28,-0.16 -1.25,0 -4.33,0.16 -5.58,0.16 -0.29,0 -0.9,0 -0.9,-1 0,-0.55 0.5,-0.55 1.15,-0.55 2.99,0 3.28,-0.5 3.74,-1.59 l 5.87,-13.91 -10.51,-11.31 -0.64,-0.55 c -2.44,-2.64 -4.79,-3.43 -7.33,-3.57 -0.64,-0.05 -1.1,-0.05 -1.1,-1 0,-0.05 0,-0.55 0.66,-0.55 1.48,0 3.12,0.16 4.67,0.16 1.85,0 3.8,-0.16 5.58,-0.16 0.31,0 0.91,0 0.91,1 0,0.5 -0.5,0.55 -0.6,0.55 -0.45,0.04 -2,0.14 -2,1.54 0,0.8 0.75,1.6 1.35,2.24 l 5.07,5.39 4.49,4.87 5.03,-11.9 c 0.2,-0.55 0.25,-0.6 0.25,-0.71 0,-0.39 -0.94,-1.23 -2.89,-1.43 -0.55,-0.05 -0.99,-0.11 -0.99,-0.96 0,-0.59 0.55,-0.59 0.74,-0.59 1.41,0 4.89,0.16 6.28,0.16 1.25,0 4.28,-0.16 5.53,-0.16 0.35,0 0.95,0 0.95,0.95 0,0.6 -0.5,0.6 -0.9,0.6 -3.33,0.04 -3.44,0.2 -4.28,2.18 -1.94,4.64 -5.28,12.41 -6.42,15.39 3.39,3.5 8.6,9.43 10.2,10.82 1.45,1.2 3.34,2.39 6.33,2.54 0.65,0.05 1.09,0.05 1.09,1 0,0.05 0,0.55 -0.64,0.55 -1.5,0 -3.14,-0.16 -4.69,-0.16 -1.84,0 -3.73,0.16 -5.53,0.16 -0.3,0 -0.94,0 -0.94,-1 0,-0.34 0.25,-0.5 0.6,-0.55 0.45,-0.04 2,-0.15 2,-1.54 0,-0.71 -0.55,-1.35 -0.96,-1.8 z"
           inkscape:connector-curvature="0"
           style="fill:#000000;stroke-width:0" /><path
           id="path1400"
           d="m 508.47,420.92 v 0.04 0.04 0.05 0.04 0.03 0.04 0.04 0.03 0.04 0.03 l -0.01,0.03 v 0.03 0.03 l -0.01,0.03 v 0.03 0.02 l -0.01,0.03 v 0.02 l -0.01,0.03 v 0.02 l -0.01,0.04 -0.02,0.04 -0.02,0.03 -0.02,0.03 -0.02,0.03 -0.02,0.03 -0.03,0.02 -0.03,0.02 -0.03,0.02 -0.04,0.01 -0.04,0.01 -0.05,0.02 h -0.02 -0.02 l -0.03,0.01 H 508 l -0.02,0.01 h -0.03 -0.03 -0.03 -0.03 l -0.04,0.01 h -0.03 -0.04 -0.03 -0.04 -0.04 -0.04 -0.04 -0.04 -0.05 -0.04 c -2.24,-2.2 -5.39,-2.23 -6.83,-2.23 v -1.25 c 0.84,0 3.14,0 5.04,0.97 v -17.77 c 0,-1.16 0,-1.61 -3.48,-1.61 h -1.31 v -1.25 c 0.62,0.03 4.9,0.14 6.2,0.14 1.08,0 5.47,-0.11 6.23,-0.14 v 1.25 h -1.32 c -3.49,0 -3.49,0.45 -3.49,1.61 z"
           inkscape:connector-curvature="0"
           style="fill:#000000;stroke-width:0" /></g>    </g>
    <g
       id="g1438"
       transform="matrix(0.31026244,0,0,0.286035,101.35691,25.514185)">
      <g
         word-spacing="normal"
         letter-spacing="normal"
         font-size-adjust="none"
         font-stretch="normal"
         font-weight="normal"
         font-variant="normal"
         font-style="normal"
         stroke-miterlimit="10.433"
         xml:space="preserve"
         transform="matrix(0.3,0,0,-0.3,-52.5,222.75)"
         id="g1436"
         style="font-style:normal;font-variant:normal;font-weight:normal;font-stretch:normal;letter-spacing:normal;word-spacing:normal;text-anchor:start;fill:none;fill-opacity:1;fill-rule:evenodd;stroke:#000000;stroke-linecap:butt;stroke-linejoin:miter;stroke-miterlimit:10.43299961;stroke-dasharray:none;stroke-dashoffset:0;stroke-opacity:1"><path
           id="path1432"
           d="m 479.68,426.68 -4.18,9.91 c -0.15,0.41 -0.25,0.59 -0.25,0.64 0,0.31 0.85,1.25 2.94,1.45 0.5,0.05 1,0.1 1,0.96 0,0.59 -0.61,0.59 -0.75,0.59 -2.05,0 -4.19,-0.16 -6.28,-0.16 -1.25,0 -4.33,0.16 -5.58,0.16 -0.29,0 -0.9,0 -0.9,-1 0,-0.55 0.5,-0.55 1.15,-0.55 2.99,0 3.28,-0.5 3.74,-1.59 l 5.87,-13.91 -10.51,-11.31 -0.64,-0.55 c -2.44,-2.64 -4.79,-3.43 -7.33,-3.57 -0.64,-0.05 -1.1,-0.05 -1.1,-1 0,-0.05 0,-0.55 0.66,-0.55 1.48,0 3.12,0.16 4.67,0.16 1.85,0 3.8,-0.16 5.58,-0.16 0.31,0 0.91,0 0.91,1 0,0.5 -0.5,0.55 -0.6,0.55 -0.45,0.04 -2,0.14 -2,1.54 0,0.8 0.75,1.6 1.35,2.24 l 5.07,5.39 4.49,4.87 5.03,-11.9 c 0.2,-0.55 0.25,-0.6 0.25,-0.71 0,-0.39 -0.94,-1.23 -2.89,-1.43 -0.55,-0.05 -0.99,-0.11 -0.99,-0.96 0,-0.59 0.55,-0.59 0.74,-0.59 1.41,0 4.89,0.16 6.28,0.16 1.25,0 4.28,-0.16 5.53,-0.16 0.35,0 0.95,0 0.95,0.95 0,0.6 -0.5,0.6 -0.9,0.6 -3.33,0.04 -3.44,0.2 -4.28,2.18 -1.94,4.64 -5.28,12.41 -6.42,15.39 3.39,3.5 8.6,9.43 10.2,10.82 1.45,1.2 3.34,2.39 6.33,2.54 0.65,0.05 1.09,0.05 1.09,1 0,0.05 0,0.55 -0.64,0.55 -1.5,0 -3.14,-0.16 -4.69,-0.16 -1.84,0 -3.73,0.16 -5.53,0.16 -0.3,0 -0.94,0 -0.94,-1 0,-0.34 0.25,-0.5 0.6,-0.55 0.45,-0.04 2,-0.15 2,-1.54 0,-0.71 -0.55,-1.35 -0.96,-1.8 z"
           inkscape:connector-curvature="0"
           style="fill:#000000;stroke-width:0" /><path
           id="path1434"
           d="m 514.4,405.11 h -1.19 c -0.1,-0.77 -0.46,-2.83 -0.91,-3.18 -0.27,-0.2 -2.95,-0.2 -3.44,-0.2 h -6.42 c 3.66,3.23 4.88,4.2 6.97,5.84 2.58,2.07 4.99,4.22 4.99,7.54 0,4.21 -3.69,6.79 -8.16,6.79 -4.31,0 -7.25,-3.03 -7.25,-6.23 0,-1.78 1.5,-1.96 1.86,-1.96 0.83,0 1.84,0.6 1.84,1.85 0,0.62 -0.25,1.84 -2.06,1.84 1.08,2.47 3.45,3.24 5.09,3.24 3.49,0 5.3,-2.71 5.3,-5.53 0,-3.04 -2.16,-5.44 -3.28,-6.69 l -8.39,-8.3 c -0.36,-0.31 -0.36,-0.39 -0.36,-1.36 h 14.36 z"
           inkscape:connector-curvature="0"
           style="fill:#000000;stroke-width:0" /></g>    </g>
    <g
       id="g2473"
       transform="matrix(0.32168825,0,0,0.35208315,70.177915,-7.6944727)">
      <g
         word-spacing="normal"
         letter-spacing="normal"
         font-size-adjust="none"
         font-stretch="normal"
         font-weight="normal"
         font-variant="normal"
         font-style="normal"
         stroke-miterlimit="10.433"
         xml:space="preserve"
         transform="matrix(0.3,0,0,-0.3,-52.5,222.75)"
         id="g2471"
         style="font-style:normal;font-variant:normal;font-weight:normal;font-stretch:normal;letter-spacing:normal;word-spacing:normal;text-anchor:start;fill:none;fill-opacity:1;fill-rule:evenodd;stroke:#000000;stroke-linecap:butt;stroke-linejoin:miter;stroke-miterlimit:10.43299961;stroke-dasharray:none;stroke-dashoffset:0;stroke-opacity:1"><path
           id="path2469"
           d="m 485.27,434.54 0.69,0.71 c 1.5,1.5 3.14,3.18 6.53,3.43 0.55,0.05 1,0.05 1,0.96 0,0.39 -0.25,0.59 -0.66,0.59 -1.29,0 -2.73,-0.16 -4.08,-0.16 -1.64,0 -3.39,0.16 -4.98,0.16 -0.3,0 -0.95,0 -0.95,-0.95 0,-0.55 0.5,-0.6 0.75,-0.6 0.34,0 1.79,-0.09 1.79,-1.14 0,-0.86 -1.14,-2.14 -1.34,-2.39 l -11.56,-13.31 -5.49,14.8 c -0.29,0.7 -0.29,0.79 -0.29,0.84 0,1.2 2.43,1.2 2.93,1.2 0.71,0 1.21,0 1.21,1 0,0.55 -0.6,0.55 -0.75,0.55 -1.39,0 -4.88,-0.16 -6.28,-0.16 -1.24,0 -4.33,0.16 -5.58,0.16 -0.3,0 -0.94,0 -0.94,-1 0,-0.55 0.48,-0.55 1.14,-0.55 2.98,0 3.19,-0.45 3.64,-1.68 l 6.13,-16.41 c 0.04,-0.14 0.2,-0.69 0.2,-0.84 0,-0.14 -2,-8.18 -2.25,-9.07 -0.64,-2.73 -0.69,-2.89 -4.69,-2.93 -0.94,0 -1.34,0 -1.34,-1 0,-0.55 0.61,-0.55 0.7,-0.55 1.39,0 4.88,0.16 6.28,0.16 1.39,0 4.99,-0.16 6.38,-0.16 0.34,0 0.93,0 0.93,1 0,0.55 -0.43,0.55 -1.39,0.55 -0.09,0 -1.04,0 -1.89,0.09 -1.04,0.11 -1.34,0.2 -1.34,0.8 0,0.36 0.45,2.09 0.7,3.14 l 1.74,7.03 c 0.25,0.94 0.29,1.09 0.7,1.55 z"
           inkscape:connector-curvature="0"
           style="fill:#000000;stroke-width:0" /></g>    </g>
    <path
       style="fill:none;stroke:#000000;stroke-width:0.26458332px;stroke-linecap:butt;stroke-linejoin:miter;stroke-opacity:1"
       d="M 100.73065,56.04017 70.114582,68.135407"
       id="path2480"
       inkscape:connector-curvature="0" />
    <path
       style="fill:none;stroke:#000000;stroke-width:0.26458332px;stroke-linecap:butt;stroke-linejoin:miter;stroke-opacity:1"
       d="M 121.33036,82.120527 91.09226,96.67261"
       id="path2482"
       inkscape:connector-curvature="0" />
    <path
       style="fill:none;stroke:#000000;stroke-width:0.26458332px;stroke-linecap:butt;stroke-linejoin:miter;stroke-opacity:1"
       d="M 100.73065,56.04017 100.91964,36.574396 132.85863,24.29017"
       id="path2484"
       inkscape:connector-curvature="0" />
    <path
       style="fill:none;stroke:#000000;stroke-width:0.26458332px;stroke-linecap:butt;stroke-linejoin:miter;stroke-opacity:1"
       d="m 121.33036,82.120525 0.56696,-20.410712 25.89137,-10.394345"
       id="path2486"
       inkscape:connector-curvature="0" />
    <path
       style="fill:none;stroke:#000000;stroke-width:0.26458332px;stroke-linecap:butt;stroke-linejoin:miter;stroke-opacity:1"
       d="m 100.91964,36.574396 20.97768,25.135417"
       id="path2488"
       inkscape:connector-curvature="0" />
    <path
       style="fill:none;stroke:#000000;stroke-width:0.26458332px;stroke-linecap:butt;stroke-linejoin:miter;stroke-opacity:1"
       d="M 70.11458,68.135407 91.09226,96.672608"
       id="path2504"
       inkscape:connector-curvature="0" />
    <path
       style="fill:none;stroke:#000000;stroke-width:0.26458332px;stroke-linecap:butt;stroke-linejoin:miter;stroke-opacity:1"
       d="m 132.85863,24.29017 21.54464,24.379463"
       id="path2506"
       inkscape:connector-curvature="0" />
    <path
       style="fill:none;stroke:#000000;stroke-width:0.26458332px;stroke-linecap:butt;stroke-linejoin:miter;stroke-opacity:1"
       d="m 147.78869,51.315469 6.61458,-2.645836"
       id="path2508"
       inkscape:connector-curvature="0" />
    <path
       style="opacity:0.41800005;fill:#008000;fill-opacity:1;stroke-width:0.71541053;stroke-linecap:round;stroke-miterlimit:4;stroke-dasharray:none"
       d="m 456.90259,227.24836 -4.11887,-4.94506 8.36329,-3.46424 c 4.59981,-1.90533 8.48242,-3.3451 8.62803,-3.1995 0.14561,0.14562 -0.0747,1.15747 -0.48951,2.24859 -0.41485,1.09111 -0.61427,2.12383 -0.44317,2.29493 0.17111,0.1711 3.59399,-2.28419 7.60642,-5.4562 6.7589,-5.34324 7.13328,-5.7673 5.09163,-5.7673 -3.79728,0 -16.5406,1.60796 -16.5406,2.0871 0,0.25127 1.02345,0.84315 2.27433,1.3153 1.25088,0.47216 2.13481,0.99678 1.96429,1.16583 -0.17052,0.16905 -4.21221,1.91068 -8.98152,3.87028 l -8.67148,3.56292 -34.33696,-41.17361 c -27.38863,-32.84183 -34.08954,-41.26855 -33.11424,-41.64278 0.6725,-0.25804 27.44695,-10.56411 59.49878,-22.90238 l 58.27605,-22.433225 37.79538,42.751365 c 20.78745,23.51325 38.81611,43.96125 40.06368,45.44002 l 2.26831,2.68865 -60.50749,24.25218 -60.50748,24.25219 z m 45.74814,-20.21023 c 0.25478,-0.66395 0.0956,-1.32972 -0.3538,-1.47951 -0.60672,-0.20224 -0.61078,-0.6026 -0.0158,-1.55536 1.21584,-1.94687 0.21378,-3.61511 -2.17147,-3.61511 -2.07664,0 -4.08635,1.49971 -3.19892,2.38715 0.81632,0.81631 1.66048,0.51054 1.66048,-0.60144 0,-1.41175 1.35569,-1.3782 1.90262,0.0471 0.26837,0.69935 -0.46173,2.03774 -1.94825,3.57143 l -2.37746,2.45293 h 3.01968 c 2.17614,0 3.14908,-0.33721 3.4829,-1.20716 z m -16.45147,-1.93109 c -0.21008,-0.54746 0.3709,-1.70268 1.29108,-2.56714 l 1.67306,-1.57175 0.87778,1.64014 c 0.6514,1.21717 0.666,1.71074 0.0566,1.91387 -0.45164,0.15055 -0.63948,0.5677 -0.41741,0.927 0.54457,0.88114 4.40937,0.83362 4.96229,-0.061 0.2428,-0.39286 -0.0109,-0.71429 -0.56378,-0.71429 -0.55288,0 -1.50826,-1.28059 -2.12308,-2.84576 -1.11784,-2.84575 -1.11783,-2.84577 1.01788,-4.64285 1.17465,-0.98841 2.59321,-1.7971 3.15236,-1.7971 0.55914,0 1.01662,-0.32143 1.01662,-0.71429 0,-0.39286 -1.15939,-0.71429 -2.57642,-0.71429 -1.92017,0 -2.47826,0.25582 -2.19103,1.00432 0.21196,0.55238 -0.19607,1.53054 -0.90675,2.1737 -1.15139,1.04198 -1.33823,1.04929 -1.71513,0.0671 -0.23264,-0.60624 -0.23796,-1.58441 -0.0119,-2.17369 0.31864,-0.83034 -0.16858,-1.07143 -2.16527,-1.07143 -1.41703,0 -2.57642,0.32143 -2.57642,0.71429 0,0.39285 0.41167,0.71428 0.91483,0.71428 0.50316,0 1.3037,1.03022 1.77898,2.28938 0.79218,2.09874 0.70553,2.45494 -1.0406,4.27749 -1.0476,1.09347 -2.491,2.1742 -3.20755,2.40162 -2.07825,0.65961 -1.50805,1.7458 0.91648,1.7458 1.60388,0 2.11335,-0.27602 1.8373,-0.9954 z"
       id="path2510"
       inkscape:connector-curvature="0"
       transform="scale(0.26458333)" />
    <path
       style="opacity:0.41800005;fill:#008000;fill-opacity:1;stroke-width:0.71541053;stroke-linecap:round;stroke-miterlimit:4;stroke-dasharray:none"
       d="m 392.51093,226.71669 -11.12547,-13.66341 0.47682,-35.79685 c 0.26225,-19.68827 0.55223,-35.88968 0.6444,-36.00313 0.0922,-0.11345 13.6576,15.95798 30.1454,35.71429 16.4878,19.75631 31.61812,37.87474 33.62293,40.26317 l 3.64511,4.34262 -20.85301,8.47239 c -11.46916,4.65982 -21.883,8.89134 -23.14186,9.40336 l -2.28886,0.93097 z"
       id="path2512"
       inkscape:connector-curvature="0"
       transform="scale(0.26458333)" />
    <path
       style="opacity:0.41800005;fill:#008000;fill-opacity:1;stroke-width:0.71541053;stroke-linecap:round;stroke-miterlimit:4;stroke-dasharray:none"
       d="m 449.75569,290.7818 -7.74411,-2.96105 -18.48109,-22.81253 C 413.3659,252.46133 405.27932,241.9801 405.56032,241.7166 c 1.06483,-0.99849 44.79544,-18.48756 45.52617,-18.20715 0.42155,0.16176 2.56873,2.49886 4.77152,5.19355 l 4.00506,4.89943 -0.74889,29.64286 c -0.41189,16.30357 -0.94362,29.83517 -1.18163,30.07021 -0.23801,0.23504 -3.91759,-0.90513 -8.17686,-2.5337 z"
       id="path2514"
       inkscape:connector-curvature="0"
       transform="scale(0.26458333)" />
    <path
       style="opacity:0.41800005;fill:#008000;fill-opacity:1;stroke-width:0.71541053;stroke-linecap:round;stroke-miterlimit:4;stroke-dasharray:none"
       d="m 451.20566,299.17571 c -3.38906,-4.20255 -6.05909,-7.74385 -5.9334,-7.86954 0.12569,-0.12569 3.00867,0.78425 6.40661,2.02208 l 6.17809,2.2506 v 5.61894 c 0,3.09041 -0.11011,5.61893 -0.24469,5.61893 -0.13457,0 -3.01755,-3.43845 -6.40661,-7.64101 z"
       id="path2516"
       inkscape:connector-curvature="0"
       transform="scale(0.26458333)" />
    <path
       style="opacity:0.41800005;fill:#008000;fill-opacity:1;stroke-width:0.71541053;stroke-linecap:round;stroke-miterlimit:4;stroke-dasharray:none"
       d="m 342.61236,361.63815 c -0.96024,-1.27679 -18.5098,-25.13935 -38.99904,-53.02791 -31.46536,-42.82853 -37.05366,-50.78933 -35.96905,-51.2397 15.7688,-6.54784 44.89116,-17.50264 45.20014,-17.0027 0.22773,0.36849 10.36837,4.42332 22.53473,9.01075 12.16637,4.58742 22.37557,8.56935 22.68711,8.84874 0.31153,0.27938 -9.17061,4.45367 -21.07143,9.27618 -11.90083,4.82251 -21.90694,9.01527 -22.23582,9.31723 -2.2854,2.09841 3.37594,0.19039 22.39951,-7.54922 11.97343,-4.8713 21.85023,-8.86287 21.94845,-8.87015 0.0982,-0.007 0.17857,8.66535 0.17857,19.27249 0,12.38095 0.25573,19.28572 0.71428,19.28572 0.45887,0 0.71429,-7.02381 0.71429,-19.64286 0,-18.25162 0.0885,-19.63908 1.25,-19.5895 0.6875,0.0293 18.75235,6.69899 40.14411,14.82143 l 38.89411,14.76807 8.07017,9.96501 c 4.4386,5.48075 8.07018,10.16017 8.07018,10.39871 0,0.43462 -111.40719,54.27914 -112.30644,54.27914 -0.2629,0 -1.26365,-1.04465 -2.22387,-2.32143 z"
       id="path2518"
       inkscape:connector-curvature="0"
       transform="scale(0.26458333)" />
    <path
       style="opacity:0.41800005;fill:#008000;fill-opacity:1;stroke-width:0.71541053;stroke-linecap:round;stroke-miterlimit:4;stroke-dasharray:none"
       d=""
       id="path2520"
       inkscape:connector-curvature="0"
       transform="scale(0.26458333)" />
    <path
       style="opacity:0.41800005;fill:#008000;fill-opacity:1;stroke-width:0.71541053;stroke-linecap:round;stroke-miterlimit:4;stroke-dasharray:none"
       d="m 360.7141,239.13088 v -18.49639 l 9.37929,-3.72007 c 5.1586,-2.04605 9.44287,-3.62826 9.5206,-3.51603 0.0777,0.11222 5.03497,6.2779 11.01611,13.7015 5.98114,7.4236 10.61251,13.75975 10.29193,14.08033 -0.53242,0.53242 -35.49734,14.95197 -38.79001,15.99702 -1.38945,0.441 -1.41792,0.0787 -1.41792,-18.04636 z"
       id="path2522"
       inkscape:connector-curvature="0"
       transform="scale(0.26458333)" />
    <path
       style="opacity:0.41800005;fill:#008000;fill-opacity:1;stroke-width:0.71541053;stroke-linecap:round;stroke-miterlimit:4;stroke-dasharray:none"
       d="m 400.58776,272.30113 c -19.90878,-7.53428 -35.98021,-13.89131 -35.71429,-14.12672 1.31957,-1.16822 38.27994,-15.62263 38.70355,-15.13614 2.63234,3.02301 34.27994,42.46466 34.27994,42.72227 0,0.62879 -0.92335,0.29533 -37.2692,-13.45941 z"
       id="path2524"
       inkscape:connector-curvature="0"
       transform="scale(0.26458333)" />
    <path
       style="opacity:0.41800005;fill:#008000;fill-opacity:1;stroke-width:0.71541053;stroke-linecap:round;stroke-miterlimit:4;stroke-dasharray:none"
       d="m 336.78553,248.19868 c -12.17857,-4.65878 -22.4076,-8.57097 -22.73116,-8.69376 -0.32357,-0.12279 9.42974,-4.17635 21.67401,-9.00791 12.24427,-4.83156 22.35641,-8.68081 22.47142,-8.5539 0.11501,0.12691 0.34166,8.0254 0.50366,17.55218 0.162,9.52679 0.27888,17.28823 0.25974,17.24766 -0.0191,-0.0406 -9.9991,-3.88549 -22.17767,-8.54427 z"
       id="path2526"
       inkscape:connector-curvature="0"
       transform="scale(0.26458333)" />
    <g
       id="g2593"
       transform="matrix(0.21677289,0,0,0.19489059,99.259576,72.45168)">
      <g
         word-spacing="normal"
         letter-spacing="normal"
         font-size-adjust="none"
         font-stretch="normal"
         font-weight="normal"
         font-variant="normal"
         font-style="normal"
         stroke-miterlimit="10.433"
         xml:space="preserve"
         transform="matrix(0.3,0,0,-0.3,-52.5,222.75)"
         id="g2591"
         style="font-style:normal;font-variant:normal;font-weight:normal;font-stretch:normal;letter-spacing:normal;word-spacing:normal;text-anchor:start;fill:none;fill-opacity:1;fill-rule:evenodd;stroke:#000000;stroke-linecap:butt;stroke-linejoin:miter;stroke-miterlimit:10.43299961;stroke-dasharray:none;stroke-dashoffset:0;stroke-opacity:1"><path
           id="path2573"
           d="m 501.21,434.45 0.23,0.4 0.24,0.4 0.24,0.38 0.24,0.37 0.13,0.18 0.13,0.17 0.14,0.17 0.13,0.16 0.14,0.16 0.15,0.16 0.15,0.15 0.16,0.14 0.16,0.14 0.17,0.13 0.17,0.13 0.18,0.12 0.19,0.11 0.19,0.11 0.2,0.1 0.21,0.09 0.22,0.09 0.23,0.08 0.24,0.07 0.25,0.06 0.25,0.05 0.27,0.05 0.28,0.04 0.29,0.02 c 0.45,0.05 0.95,0.05 0.95,1 0,0.19 -0.2,0.55 -0.61,0.55 -1.19,0 -2.58,-0.16 -3.83,-0.16 -1.7,0 -3.55,0.16 -5.19,0.16 -0.29,0 -0.93,0 -0.93,-0.95 0,-0.55 0.43,-0.6 0.73,-0.6 1.2,-0.04 2.95,-0.45 2.95,-1.93 0,-0.55 -0.25,-0.96 -0.65,-1.66 l -13.46,-23.45 -1.84,24.7 c -0.05,1 -0.14,2.3 3.48,2.34 0.86,0 1.36,0 1.36,1 0,0.5 -0.56,0.55 -0.75,0.55 -2,0 -4.09,-0.16 -6.07,-0.16 -1.16,0 -4.1,0.16 -5.24,0.16 -0.3,0 -0.95,0 -0.95,-1 0,-0.55 0.5,-0.55 1.2,-0.55 2.19,0 2.53,-0.29 2.64,-1.25 l 0.3,-3.82 -12.61,-21.97 -1.89,25.25 c 0,0.59 0,1.75 3.78,1.79 0.5,0 1.05,0 1.05,1 0,0.55 -0.6,0.55 -0.69,0.55 -2,0 -4.09,-0.16 -6.13,-0.16 -1.75,0 -3.54,0.16 -5.23,0.16 -0.25,0 -0.91,0 -0.91,-0.95 0,-0.6 0.46,-0.6 1.25,-0.6 2.5,0 2.55,-0.45 2.64,-1.84 l 2.25,-30.44 c 0.05,-0.9 0.1,-1.29 0.8,-1.29 0.6,0 0.74,0.29 1.19,1.04 l 14.66,25.41 1.84,-25.16 c 0.09,-1.04 0.19,-1.29 0.8,-1.29 0.64,0 0.93,0.5 1.18,0.93 z"
           inkscape:connector-curvature="0"
           style="fill:#000000;stroke-width:0" /><path
           id="path2575"
           d="m 514.23,420.92 v 0.04 0.04 0.05 0.04 0.03 0.04 0.04 0.03 l -0.01,0.04 v 0.03 0.03 0.03 0.03 l -0.01,0.03 v 0.03 l -0.01,0.02 v 0.03 0.02 l -0.01,0.03 v 0.02 l -0.02,0.04 -0.01,0.04 -0.02,0.03 -0.02,0.03 -0.02,0.03 -0.02,0.03 -0.03,0.02 -0.03,0.02 -0.04,0.02 -0.03,0.01 -0.04,0.01 -0.05,0.02 h -0.02 -0.03 l -0.02,0.01 h -0.03 l -0.02,0.01 h -0.03 -0.03 -0.03 -0.04 l -0.03,0.01 h -0.03 -0.04 -0.04 -0.03 -0.04 -0.04 -0.04 -0.05 -0.04 -0.05 c -2.23,-2.2 -5.39,-2.23 -6.82,-2.23 v -1.25 c 0.84,0 3.14,0 5.04,0.97 v -17.77 c 0,-1.16 0,-1.61 -3.48,-1.61 h -1.31 v -1.25 c 0.62,0.03 4.9,0.14 6.2,0.14 1.08,0 5.47,-0.11 6.23,-0.14 v 1.25 h -1.32 c -3.49,0 -3.49,0.45 -3.49,1.61 z"
           inkscape:connector-curvature="0"
           style="fill:#000000;stroke-width:0" /><path
           id="path2577"
           d="m 549.16,426.68 -4.18,9.91 c -0.15,0.41 -0.25,0.59 -0.25,0.64 0,0.31 0.85,1.25 2.94,1.45 0.5,0.05 1,0.1 1,0.96 0,0.59 -0.61,0.59 -0.75,0.59 -2.04,0 -4.19,-0.16 -6.28,-0.16 -1.25,0 -4.33,0.16 -5.58,0.16 -0.29,0 -0.9,0 -0.9,-1 0,-0.55 0.5,-0.55 1.15,-0.55 2.99,0 3.28,-0.5 3.74,-1.59 l 5.87,-13.91 -10.51,-11.31 -0.64,-0.55 c -2.44,-2.64 -4.79,-3.43 -7.33,-3.57 -0.64,-0.05 -1.1,-0.05 -1.1,-1 0,-0.05 0,-0.55 0.66,-0.55 1.48,0 3.12,0.16 4.67,0.16 1.85,0 3.8,-0.16 5.58,-0.16 0.31,0 0.91,0 0.91,1 0,0.5 -0.5,0.55 -0.6,0.55 -0.45,0.04 -2,0.14 -2,1.54 0,0.8 0.75,1.6 1.35,2.24 l 5.07,5.39 4.49,4.87 5.03,-11.9 c 0.2,-0.55 0.25,-0.6 0.25,-0.71 0,-0.39 -0.94,-1.23 -2.89,-1.43 -0.55,-0.05 -0.98,-0.11 -0.98,-0.96 0,-0.59 0.54,-0.59 0.73,-0.59 1.41,0 4.89,0.16 6.28,0.16 1.25,0 4.28,-0.16 5.53,-0.16 0.35,0 0.96,0 0.96,0.95 0,0.6 -0.5,0.6 -0.91,0.6 -3.33,0.04 -3.44,0.2 -4.28,2.18 -1.94,4.64 -5.28,12.41 -6.42,15.39 3.39,3.5 8.61,9.43 10.2,10.82 1.45,1.2 3.34,2.39 6.33,2.54 0.65,0.05 1.09,0.05 1.09,1 0,0.05 0,0.55 -0.64,0.55 -1.5,0 -3.14,-0.16 -4.69,-0.16 -1.84,0 -3.73,0.16 -5.53,0.16 -0.3,0 -0.94,0 -0.94,-1 0,-0.34 0.25,-0.5 0.6,-0.55 0.45,-0.04 2,-0.15 2,-1.54 0,-0.71 -0.55,-1.35 -0.96,-1.8 z"
           inkscape:connector-curvature="0"
           style="fill:#000000;stroke-width:0" /><path
           id="path2579"
           d="m 577.95,420.92 v 0.04 0.04 0.05 0.04 0.03 0.04 0.04 0.03 0.04 0.03 l -0.01,0.03 v 0.03 0.03 0.03 l -0.01,0.03 v 0.02 l -0.01,0.03 v 0.02 l -0.01,0.03 v 0.02 l -0.01,0.04 -0.02,0.04 -0.02,0.03 -0.01,0.03 -0.03,0.03 -0.02,0.03 -0.03,0.02 -0.03,0.02 -0.03,0.02 -0.04,0.01 -0.04,0.01 -0.04,0.02 h -0.03 -0.02 l -0.03,0.01 h -0.02 l -0.03,0.01 h -0.03 -0.03 -0.03 -0.03 l -0.04,0.01 h -0.03 -0.04 -0.03 -0.04 -0.04 -0.04 -0.04 -0.04 -0.05 -0.04 c -2.24,-2.2 -5.39,-2.23 -6.83,-2.23 v -1.25 c 0.84,0 3.14,0 5.04,0.97 v -17.77 c 0,-1.16 0,-1.61 -3.48,-1.61 h -1.31 v -1.25 c 0.62,0.03 4.9,0.14 6.2,0.14 1.08,0 5.47,-0.11 6.24,-0.14 v 1.25 h -1.33 c -3.49,0 -3.49,0.45 -3.49,1.61 z"
           inkscape:connector-curvature="0"
           style="fill:#000000;stroke-width:0" /><path
           id="path2581"
           d="m 620.02,417.65 h 13.9 c 0.69,0 1.64,0 1.64,1 0,1 -0.95,1 -1.64,1 h -13.9 v 13.96 c 0,0.68 0,1.64 -1,1.64 -0.99,0 -0.99,-0.96 -0.99,-1.64 v -13.96 h -13.95 c -0.7,0 -1.64,0 -1.64,-1 0,-1 0.94,-1 1.64,-1 h 13.95 v -13.94 c 0,-0.7 0,-1.65 0.99,-1.65 1,0 1,0.95 1,1.65 z"
           inkscape:connector-curvature="0"
           style="fill:#000000;stroke-width:0" /><path
           id="path2583"
           d="m 695.12,434.45 0.24,0.4 0.23,0.4 0.24,0.38 0.25,0.37 0.13,0.18 0.13,0.17 0.13,0.17 0.14,0.16 0.14,0.16 0.15,0.16 0.15,0.15 0.16,0.14 0.16,0.14 0.16,0.13 0.18,0.13 0.18,0.12 0.19,0.11 0.19,0.11 0.2,0.1 0.21,0.09 0.22,0.09 0.23,0.08 0.24,0.07 0.24,0.06 0.26,0.05 0.27,0.05 0.27,0.04 0.29,0.02 c 0.46,0.05 0.96,0.05 0.96,1 0,0.19 -0.21,0.55 -0.61,0.55 -1.19,0 -2.58,-0.16 -3.83,-0.16 -1.7,0 -3.55,0.16 -5.19,0.16 -0.3,0 -0.94,0 -0.94,-0.95 0,-0.55 0.44,-0.6 0.74,-0.6 1.2,-0.04 2.95,-0.45 2.95,-1.93 0,-0.55 -0.25,-0.96 -0.66,-1.66 l -13.45,-23.45 -1.84,24.7 c -0.05,1 -0.14,2.3 3.48,2.34 0.86,0 1.36,0 1.36,1 0,0.5 -0.56,0.55 -0.75,0.55 -2,0 -4.09,-0.16 -6.08,-0.16 -1.15,0 -4.09,0.16 -5.23,0.16 -0.3,0 -0.95,0 -0.95,-1 0,-0.55 0.5,-0.55 1.2,-0.55 2.19,0 2.53,-0.29 2.64,-1.25 l 0.3,-3.82 -12.61,-21.97 -1.89,25.25 c 0,0.59 0,1.75 3.78,1.79 0.5,0 1.04,0 1.04,1 0,0.55 -0.59,0.55 -0.68,0.55 -2,0 -4.1,-0.16 -6.13,-0.16 -1.75,0 -3.54,0.16 -5.23,0.16 -0.25,0 -0.91,0 -0.91,-0.95 0,-0.6 0.45,-0.6 1.25,-0.6 2.5,0 2.55,-0.45 2.64,-1.84 l 2.25,-30.44 c 0.05,-0.9 0.1,-1.29 0.8,-1.29 0.59,0 0.73,0.29 1.19,1.04 l 14.65,25.41 1.85,-25.16 c 0.09,-1.04 0.18,-1.29 0.79,-1.29 0.64,0 0.94,0.5 1.19,0.93 z"
           inkscape:connector-curvature="0"
           style="fill:#000000;stroke-width:0" /><path
           id="path2585"
           d="m 714.07,405.11 h -1.18 c -0.1,-0.77 -0.46,-2.83 -0.91,-3.18 -0.26,-0.2 -2.95,-0.2 -3.44,-0.2 h -6.42 c 3.66,3.23 4.88,4.2 6.97,5.84 2.58,2.07 4.98,4.22 4.98,7.54 0,4.21 -3.68,6.79 -8.15,6.79 -4.32,0 -7.25,-3.03 -7.25,-6.23 0,-1.78 1.5,-1.96 1.86,-1.96 0.82,0 1.84,0.6 1.84,1.85 0,0.62 -0.25,1.84 -2.06,1.84 1.08,2.47 3.45,3.24 5.09,3.24 3.49,0 5.3,-2.71 5.3,-5.53 0,-3.04 -2.16,-5.44 -3.28,-6.69 l -8.39,-8.3 c -0.36,-0.31 -0.36,-0.39 -0.36,-1.36 h 14.36 z"
           inkscape:connector-curvature="0"
           style="fill:#000000;stroke-width:0" /><path
           id="path2587"
           d="m 742.96,426.68 -4.18,9.91 c -0.15,0.41 -0.25,0.59 -0.25,0.64 0,0.31 0.85,1.25 2.94,1.45 0.5,0.05 1,0.1 1,0.96 0,0.59 -0.61,0.59 -0.75,0.59 -2.04,0 -4.19,-0.16 -6.28,-0.16 -1.25,0 -4.33,0.16 -5.58,0.16 -0.29,0 -0.9,0 -0.9,-1 0,-0.55 0.5,-0.55 1.15,-0.55 2.99,0 3.29,-0.5 3.74,-1.59 l 5.87,-13.91 -10.51,-11.31 -0.64,-0.55 c -2.44,-2.64 -4.79,-3.43 -7.33,-3.57 -0.64,-0.05 -1.09,-0.05 -1.09,-1 0,-0.05 0,-0.55 0.65,-0.55 1.48,0 3.13,0.16 4.67,0.16 1.85,0 3.8,-0.16 5.58,-0.16 0.31,0 0.91,0 0.91,1 0,0.5 -0.5,0.55 -0.6,0.55 -0.45,0.04 -2,0.14 -2,1.54 0,0.8 0.75,1.6 1.35,2.24 l 5.07,5.39 4.49,4.87 5.03,-11.9 c 0.2,-0.55 0.25,-0.6 0.25,-0.71 0,-0.39 -0.94,-1.23 -2.89,-1.43 -0.55,-0.05 -0.98,-0.11 -0.98,-0.96 0,-0.59 0.54,-0.59 0.73,-0.59 1.41,0 4.89,0.16 6.28,0.16 1.25,0 4.28,-0.16 5.53,-0.16 0.35,0 0.96,0 0.96,0.95 0,0.6 -0.5,0.6 -0.91,0.6 -3.33,0.04 -3.44,0.2 -4.28,2.18 -1.94,4.64 -5.28,12.41 -6.42,15.39 3.39,3.5 8.61,9.43 10.2,10.82 1.45,1.2 3.34,2.39 6.33,2.54 0.65,0.05 1.09,0.05 1.09,1 0,0.05 0,0.55 -0.64,0.55 -1.5,0 -3.14,-0.16 -4.69,-0.16 -1.84,0 -3.73,0.16 -5.53,0.16 -0.3,0 -0.93,0 -0.93,-1 0,-0.34 0.25,-0.5 0.59,-0.55 0.45,-0.04 2,-0.15 2,-1.54 0,-0.71 -0.55,-1.35 -0.96,-1.8 z"
           inkscape:connector-curvature="0"
           style="fill:#000000;stroke-width:0" /><path
           id="path2589"
           d="m 770.37,410.04 5.28,5.13 c 7.76,6.87 10.76,9.56 10.76,14.54 0,5.69 -4.48,9.68 -10.56,9.68 -5.64,0 -9.33,-4.6 -9.33,-9.03 0,-2.79 2.5,-2.79 2.64,-2.79 0.86,0 2.6,0.6 2.6,2.64 0,1.3 -0.89,2.6 -2.64,2.6 -0.39,0 -0.5,0 -0.64,-0.05 1.14,3.24 3.82,5.08 6.72,5.08 4.53,0 6.68,-4.05 6.68,-8.13 0,-3.98 -2.5,-7.92 -5.23,-11.01 l -9.56,-10.66 c -0.57,-0.54 -0.57,-0.64 -0.57,-1.84 h 18.49 l 1.4,8.67 h -1.25 c -0.25,-1.5 -0.59,-3.69 -1.09,-4.44 -0.36,-0.39 -3.64,-0.39 -4.73,-0.39 z"
           inkscape:connector-curvature="0"
           style="fill:#000000;stroke-width:0" /></g>    </g>
  </g>
</svg>
